<mxfile host="app.diagrams.net" modified="2024-01-20T17:48:34.563Z" agent="Mozilla/5.0 (Macintosh; Intel Mac OS X 10.15; rv:121.0) Gecko/20100101 Firefox/121.0" etag="79FX40wvoa0fIg_A38pf" version="22.1.21" type="github">
  <diagram name="Page-1" id="5gzeKuti38EW8J-TYDWv">
    <mxGraphModel dx="1834" dy="575" grid="1" gridSize="10" guides="1" tooltips="1" connect="1" arrows="1" fold="1" page="1" pageScale="1" pageWidth="850" pageHeight="1100" math="0" shadow="0">
      <root>
        <mxCell id="0" />
        <mxCell id="1" parent="0" />
        <mxCell id="MOm3VzQXyqsTuMaY0aLf-2" value="" style="swimlane;startSize=0;" vertex="1" parent="1">
          <mxGeometry x="-70" y="90" width="722" height="1040" as="geometry" />
        </mxCell>
        <mxCell id="MOm3VzQXyqsTuMaY0aLf-14" style="edgeStyle=orthogonalEdgeStyle;rounded=0;orthogonalLoop=1;jettySize=auto;html=1;exitX=0.5;exitY=1;exitDx=0;exitDy=0;entryX=0;entryY=0.5;entryDx=0;entryDy=0;" edge="1" parent="MOm3VzQXyqsTuMaY0aLf-2" source="MOm3VzQXyqsTuMaY0aLf-6" target="MOm3VzQXyqsTuMaY0aLf-13">
          <mxGeometry relative="1" as="geometry" />
        </mxCell>
        <mxCell id="MOm3VzQXyqsTuMaY0aLf-17" value="energy mertics" style="edgeLabel;html=1;align=center;verticalAlign=middle;resizable=0;points=[];" vertex="1" connectable="0" parent="MOm3VzQXyqsTuMaY0aLf-14">
          <mxGeometry x="-0.3314" y="-1" relative="1" as="geometry">
            <mxPoint as="offset" />
          </mxGeometry>
        </mxCell>
        <mxCell id="MOm3VzQXyqsTuMaY0aLf-6" value="Powermetrics&lt;br&gt;(Tool to gather energy related metrics)" style="rounded=0;whiteSpace=wrap;html=1;" vertex="1" parent="MOm3VzQXyqsTuMaY0aLf-2">
          <mxGeometry y="260" width="140" height="80" as="geometry" />
        </mxCell>
        <mxCell id="MOm3VzQXyqsTuMaY0aLf-15" value="Video player encoder and codec metrics" style="edgeStyle=orthogonalEdgeStyle;rounded=0;orthogonalLoop=1;jettySize=auto;html=1;exitX=0.5;exitY=1;exitDx=0;exitDy=0;entryX=0.5;entryY=0;entryDx=0;entryDy=0;" edge="1" parent="MOm3VzQXyqsTuMaY0aLf-2" source="MOm3VzQXyqsTuMaY0aLf-7" target="MOm3VzQXyqsTuMaY0aLf-13">
          <mxGeometry relative="1" as="geometry" />
        </mxCell>
        <mxCell id="MOm3VzQXyqsTuMaY0aLf-7" value="ffmpeg library [Video player]&lt;br&gt;(To play the video locally, supporting different codecs)" style="rounded=0;whiteSpace=wrap;html=1;" vertex="1" parent="MOm3VzQXyqsTuMaY0aLf-2">
          <mxGeometry x="160" y="400" width="190" height="50" as="geometry" />
        </mxCell>
        <mxCell id="MOm3VzQXyqsTuMaY0aLf-8" value="&lt;div&gt;openCV [video level info.]&lt;/div&gt;&lt;div&gt;(Tool to get video information such as Brighntess based on frames, fps, resolution, grayscale etc.)&lt;br&gt;&lt;/div&gt;" style="rounded=0;whiteSpace=wrap;html=1;" vertex="1" parent="MOm3VzQXyqsTuMaY0aLf-2">
          <mxGeometry x="440" y="355" width="270" height="80" as="geometry" />
        </mxCell>
        <mxCell id="MOm3VzQXyqsTuMaY0aLf-11" style="edgeStyle=orthogonalEdgeStyle;rounded=0;orthogonalLoop=1;jettySize=auto;html=1;entryX=0.25;entryY=0;entryDx=0;entryDy=0;" edge="1" parent="MOm3VzQXyqsTuMaY0aLf-2" source="MOm3VzQXyqsTuMaY0aLf-31" target="MOm3VzQXyqsTuMaY0aLf-8">
          <mxGeometry relative="1" as="geometry" />
        </mxCell>
        <mxCell id="MOm3VzQXyqsTuMaY0aLf-12" value="" style="edgeStyle=orthogonalEdgeStyle;rounded=0;orthogonalLoop=1;jettySize=auto;html=1;" edge="1" parent="MOm3VzQXyqsTuMaY0aLf-2" source="MOm3VzQXyqsTuMaY0aLf-29" target="MOm3VzQXyqsTuMaY0aLf-7">
          <mxGeometry relative="1" as="geometry" />
        </mxCell>
        <mxCell id="MOm3VzQXyqsTuMaY0aLf-9" value="" style="shape=image;verticalLabelPosition=bottom;labelBackgroundColor=default;verticalAlign=top;aspect=fixed;imageAspect=0;image=data:image/png,iVBORw0KGgoAAAANSUhEUgAAAoAAAAKACAYAAAAMzckjAAAABmJLR0QA/wD/AP+gvaeTAAAgAElEQVR4nOzdeZxcZ3kn+t97zqml91W9SK2t1ZJakmXZErbA2EYm3m3JNhNBSMhwCQm7sexhyZ1750Yz9yaZyyQYY5sELhmykJCEDIsNAWwTQwzYxnjHsva1JfXeXd21nu29f1Rr7626zlvnnKrf15/6qGV1P+9bp2t56nk3gIiIiIiIiIiIiIiIiIiIiIiIiIiIiIiIiIiIiIiIiIiIiIiIiIiIiIiIiIiIiIiIiIiIiIiIiIiIiIiIiIiIiIiIiIiIqFIJvztARDQfG3bujmrpgRpXi9a5UsakgXpX6tUAYkK6TQBikFgyWwypiaQmheUCEwKuI6SWcDW4QmJcaI50hJaOOXJUxprG3vjmbrM094yIqPSYABKRb7Z86EORxGBsWcTVul2pNUmgFZrbCohWTcpFEmiHEIsgZSsgWgEYJexeEsAogDFAjkJoo0LKlIQ4LoTb50jRZzjusVx11YnD3/x/EyXsFxFR0ZgAEpE6u3dra15IrBCaXAEhFwNiJaRcCYiV0LASEl0AdL+76YFJAXFCQo4AYj+ke0Bq2n4X9j6YOHTwBw/n/O4gEdH5mAASUdF6brs3ZkSNNVK6vVJgnSaxTkL0AlgLoMrv/vnMAXAMkPsl8IYmxa8F8FpmsnHP0Z/szvrdOSKqTEwAiaggPbfdG9MjxkYBbJZSbobAWwFchvKo5JWSA8gDgPY64L4mpfi17ugvv/mvf37M744RUfljAkhEM9qw82O1di66SUBeKSU2Q4jNANYDiPjdt3IlgQEh8UsI+UshtV9mdfnLo9/5wrjf/SKi8sIEkIjO2nD7pzvsiHUtXHEdhLwWwCawsuc3CWA/BH4JiWcd4fz04Hcf3uN3p4go3JgAElWq3bu13ldGr5SOuFEK7VoB9y2A6PC7WzQvSQE8J6V8SgI/r+vMPP/iV75i+d0pIgoPJoBEFWTNnfcvETpuhitvgcA7ASzyu0/kiSEJPAMpfuzq9o8OfufhQ353iIiCjQkgURlbcfeuxpgrb5IQNwrgRgDdfveJ1JPAgBB4AlI+ntPEk5xDSEQXYwJIVF7E2h33b5ECNwrIGyBxHbgNS4WTWUD8FJA/doT7fc4fJCKACSBR+O3cqa/NLb0ewvlNSHEPgE6/u0RBJvdKiG8LiG/te+zBF5FfZEJEFYYJIFEIrdi2Ox6rS9wiNXm3kNgOoMXvPlEoHYcU3xHAt/ZuaXgGu3e7fneIiEqDCSBRWOzcqfdmu37D1eR7hcS7ANT73SUqKycAfEMI8fW9333wdb87Q0RqMQEkCrjVd923VXO134Zw381tWqhEXgPw947h/MPBbz3c53dniMh7TACJAmjD9vuWOdA+KIX8HQCr/O4PVSwHEv8qIL+yN37qB/jmNx2/O0RE3mACSBQUO3fqvWbX7ZDywxK4FTyBg4LlhBTyq3C0v9r/vQdP+t0ZIioOE0Ain/W8694uzdY/KIDfB9Dld3+I5mAD+L4L+fkDjz307353hogWhgkgkT9E71333SxdfBJC3AJW+yicfg7Iz+3b3PQ9riAmChcmgEQl1HPbvTE9avw2IB+AxGV+94fIExJvQuDPjFjj19/45m7T7+4Q0dyYABKVQO89H2+RbuQjkPITXMlLZeyUgPh8MoYv9X3zwYzfnSGimTEBJFJo3bt2dbo2PgvgDwBU+90fohLpA/BH+2In/4Yrh4mCiQkgkQIbbv90h21YfwjgQ+BZvEXRdR3RWByRWAzRSASGoUPTDRi6AU3Xoes6jEgEuq5D1zQI3Zg2juu6kG4+F3FsBxISruvCdWwAgG07sG0LVi4H27Zh2RZs04Jlm/nvlzwxrVASeEMT4n/f+90HH/e7L0R0ISaARB7acPunOxzd/IwU4iNg4jcHgVgsjlh1FWLxOKpiVYhWxRGNxmBEI4gZURjRKDRNU9iHWZK68/7JlTasrIWcmYNtmsiaGeSyOZhmDrlcFtl0GpZpKexn6D3jCvnpA9996Hm/O0JEeUwAiTwwNdT7GeQrfhzqPU80VoWqmhrU1NaiuqYGVVXViMfjMGIxaGKWl6CSFNzmlwDOh+1YyKRTyKYzyGYzSKdSyKbTSKVSkJILZAFISPyVEReffeObD4763RmiSscEkKgIXTvvr6ox5QOQ+EMAtX73x0+6EUVNXR3q6htRXVONqqlkzzDODMkWmFGFLAGc+QckMpkMMskU0qkkUskkkqlJZDMVu0ZiUEp8av/jX/g6SvRbJqJLMQEkWhjRe9f975VS/imAZX53ptR03UBNQwPqahtQW1+Pmro6xONVmK2gV7kJ4PQcx0EqmcTkRALJyQQmxidgmtlCGw2zfxO69tG93/78fr87QlSJmAASFaj3rk9eA6l9XgJb/e5LaQjEq6tR39iMhsZG1NU3IF5VBTF7tjcNJoBzyZk5JCcmMDmRwEQigeREotwXn+QA/HHnROOf/uQnu22/O0NUSZgAEs3TZTvua7eBL0iI96CMnztCaKhraERDUzPqGhpQW9eASGT6lbWFYQJYaBzXcZGcnMTExDgSo2OYmBiH65bffEIBPC9c93ff/N4XD/jdF6JKUbZvYkQeEr3bd71fAn8OgWa/O+M1AYF4XR2amhehsbkFdQ0NMM6uvPUyC2MCWHCci0K6rotkchLjo6MYHx1BcnKinCbRpQTEA3sfe/ArfneEqBIwASSaxZo77u/WdPllCdzod1+8FI1Xo7GlFY1NLWhsakIkGrnwG+QlX3iACWDBceYIads2EuPjGB8bwdjIKHK5slhY8pitG39w6Nt/Nuh3R4jKGRNAouns3q31vpS4X0L+N5TDti5CoK6hCS2LOtDQ0oya6prZF2wEIQEsiSAmgAsPmUylkBgbxejIMCbGxtT0qQQkMKAJ9117v/vFX/jdF6JyxQSQ6CJrd3xiMUTkbyHlb/jdl2LohoHmlkVobmtHY1MzjEhk7h86gwlgKBPA89m2jfHRUYwMD2JsZBiOE7oT2XIC4sN7H3vwb/zuCFE5YgJIdJ61O+7bAYi/AtDqd18WQjeiaGnrQEvbIjQ0NkPXF3iKBhPA0CeA5wdwHAdjY2MYGujH2PBQuFYWC/zZvujJP+SZwkTeYgJIhKkNnXPyzwF81O++FErTNbS0tmNRx2I0trRA1zTIYjMHJfmBl3MAS5DAhGAOYEGxptiOjdHhEQz2n8Z4SIaJBfB923J+++APHp7wuy9E5YIJIFW89dvv32AL+U8C2OB3X+ZPoL6xCW2dS9CyqA3RixZxMAH0QJkmgOfLZLIYGhxA/+mTMLPB3oRaAm9oGu7c+50vHPW7L0TlgAkgVbTeu+7fLqX8ewB1fvdlPqLRGNqXdKGtcwmqq2dem8IE0AMVkACe+y6JxNg4Tp/sw9jIMNzgDhH3AfLGfY89tM/vjhCFHRNAqlhrd+z6DIA/BbDAiXKlIQA0tLRhcddSNLW2QhPz6a6CZKTUsZgAliwBPF8um0X/qZM4ffIkLDuIh3PIfl1qN+55/ME3/O4JUZgxAaSK03PbvTEton9ZAO/3uy+ziURiWLx0GdoXdyEWjxf400wAi1ahCeAZjmNjqH8AJ04cQzYTuOHhIelqN+3/3udf9bsjRGHFBJAqymU77mu3oH0LkNf43ZeZ1NbXo2vZSrS2tUNo+gKjMAEsWoUngGd+XEqJkaEhnDhxFMnJZLEd8o7EqNDdm/d+54sv+t0VojBiAkgVY/U9u9ZpDn4IYJnffZlOc0srulasRENTa9FPzKLnAJ4XyTvlngAqaDgACeC5r10MDw7g6NEjyGQCc+LIuJTy5v2PP/SC3x0hChsmgFQR1my/7yohtB8BssnvvpxPCA0dixeja3k3qmpq8v/Tg8SDCaAHmABe9ONTf5ESo8PDOHz4YDASQYlRCHkNF4YQFYYJIJW9NXc+sElo7pMAFvndlzOEEGhr78DSlT2orj2zAFle8EcxmAB6gAng9AngFNexcfrkKRw/cQS25fcezXJv1DGvef37fzHmc0eIQoMJIJW1ddt3bXYFngDQ4ndfzljU3omVPasRr6m96F+8SwCLFviTQEqQ4DIBnDUBPMPK5XDk8EEMDAz6fcLIv9V2pG998StfsfzsBFFYMAGkspWv/MmngzLs29DYiJVrelHf2DzDdzABvOC7pYTjSDiuhOO6cFwJV+b/7roupMz/XUpM/SnhTi1amI0Q+QqsmPoaADRNQNcEdKGd/VoTU/9P02Do2tnvVS9cCeAZ46MjOHRgP1JpX4eF/+e+x77wQT87QBQWTACpLK2664GlhnSfA7DY775UV1dh5ZpeNLd1QMz6lKusBFBKCctxYTv55M52XNhu/u+2IyHd2doufQVQ0wQMTYOu55PCiJ5PDA09/7V3r6bhTAABQLoOTh4/jmPHjsFx3eLaXjD5mX2PPfQ/fGqcKDSYAFLZ6bnt3no9oj8D4HI/+2HoOlb0rMHipcvnuZ1LgOYAepgAnkn0LNuB5TiwbPds4je/PhT8j4X0zrMmDF2cTQqjho5oRJ9KDAt9mQ3CJ4ApBSaAZ6QmEti/901MJlOed2keHCnltv2PP/QzPxonCgsmgFRWtm3bbZyuH3scELf62Y/Wtnb09K5HLD7zcW2XCn8CKKWEabswbQc5y4FpO+clekFcBOLlHMBLf0AIIKLriBjnksKYoc+RFIY/AQQA17Fw/PAh9PWd8uNoucNA9Ip9j31ustQNE4WF4XcHiLx0um78ET+Tv1g8jtW969Da1rmAyk/4WI6LnGWfTfYs+9KqnprLEJ5razn5imc6lz9WTQggauiIRYz8n1Edunb+/Tnva7+HgIug6xGsWN2LpqZm7Nu3D9mcWcrmuwHrQQC/X8pGicIkPK+iRHNYu33XLgg86Ff7S5YtQ3fPWuiR6AIjBLsCKAGYlnM24cvZDtxZ5+nNGFTJty+M2grgfBm6hljEQDyqIx7VoWtasSGL7tOlP77wWNlUEnvf3IPERKkLcvKufY899FiJGyUKBSaAVBbWbX/gra5wn4EPVW0jYmDNho1oay92vUmwEsB8wmcja9nImjZM20FxI3lMAOcbJ2JMJYSGgXjUgKYt9KU6GAkgANiWiUN796B/aKSoOAUatHVj46Fv/9lgKRslCgMOAVPobdn+oeqkcP8GPjye6xsasWHTlYhXFTLXbybze5MXGtBUG0dbQxVq4lFURfMLTEzbRda0MTKRwUAiBcsu/A3bdvMxsjkHWcuGe8FKztnXMJdWCbJDH+9sfiW0iZTMD5tGIzqqogbiEQOxaDhftiPRKNZs2Iiqo4dw7FhfqeYFthmO/SiAnaVojChMgvN6TrRAvTt2PSKBj5e0USGwdEU3ulevgSY0b2NP877Y0VyNK7rb0LukGas6G2Doc68qPjWaxN6+UbxxbBhv9o1OO1wrIZGzHGRy+Urf2Tl8AdgH0PdFIL7Fmn0bGE0TiEeMfEIYM84NF6vok4cVwHNhJE6dOIZDh46UbKsYDfLmNx976MmSNEYUEkwAKdR6t99/sxTyhyjhY1nTDfRuvBLt7W1qGph6n9V1YOvaTly/YSmWt9UXFTKRyuH5/afw41ePY2Qyi0zORsa0kbPs6Yd1mQD6GKuwfQAjhoaqaARV0emqgwFMAKciDZw4hgMHD5cmCZR4s7YzvYmnhBCdwwSQQmvF3bsaYy5+DWBJqdqMxqux4cotaGpomPo/aoaxruldjNuv6kZzbdzTuJbt4IcvHcXXf/IGkplZ3guZAPq4gHbhG0FHDA01sSiq4xEYugcv70oSQHn2z/6+E9h/4FBJkkApxAP7v/ugb4vEiIJmPrvTEgVS+5qtDwLinaVqr6auCZveshX1dRef4eudjsZqfOS2K/COjUtRpWCul65pWLukGTdfsQKjk1kcHUx43gb5x3UlspaNyYyJrJnfdiZ/jF0QP+sL1NbXI2ZoGB0dU55vC2BL69rr/3Jk389Luh8NUVAxAaRQWr/9/g1S4CsAPJ6AN736pkW4fMtVqI4vdIuXud1w+TJ86JbL0VJfpayNM+JRA9esW4IV7Q146eAArLlO5aDQcVyJjGlhMmPCdtyzZxoHi0BtfQPgOhhPKP8wUi3h5Eb2PfdT1Q0RhQETQAql5t63/g2AtaVoq6GlDRuv2IK4qtWXArj7bT3YcfWqIrb7WJhli+px+co2PL/vNLKWrbg1UdhNzHbDHP8+39sscebsw3SxPL4t4LJNF8NyHKSyJjJTv+OIoc1vTbeK+3TJTaC+qQlmOoVkKj13n4ogIDZ1XL750aE9L7AKSBWPCSCFzuod910vIP64FG01LOrEhsuvVJr8vW/bemy7bKma+PPQWl+Ft/UuxrN7T509rYLKU74qaCOVzec/EUMPxPCwEAKNzc2YGB9VfWJIlesYgyP7nnteZSNEYRC08QCiOekQ/6UU7eSTvyvUJX8Afuu6XlzTW+wG0sVb3FyL//7+69FY4+2iEwomx5UYT2VxcmQSY8kM7BJtxzIbIxJB7/oNiBqq9zmUu7Zt2x3OzRSJPMQKIIXKuu0PvFUK+Seq26luaMLGTZtRFTPmHL5a6O3a9V2486pu1Xdl3uqqouhub8RPf90HIF+VyXdVeHTzf0SVtwtvAGDa+eFhx5WIGTo0IWb4fq/+mzlWJBpFPBbB0LDS00Iak/Hs6yP7ntujshGioGMFkELF1eSnVLcRr6nH2o2bURWPKGtjaWsd3nPtGmXxF+rKVW147/W9fneDSkxKIJkxcWo0iUQ6W6pTOqbV1rEYbW2tahuR+KjaBoiCjwkghcZlO+5rh5TbVbZhRGLoXr8JTXXqVuLqAvjdG9ZBD9yKzLx3X9eLle0Nc38jlR0pJRKpHPrHkkjnfNozWQisXrMWsZi6FfcAtvXevWuFygaIgi6Y70BE07Ag3g9A2buCANC1ZgM6WhoKHM4q7HbTFSvQ1VKn6m4UTdcE7tuxGfpChm1Dd/NqeLu8bo4rMTKZwVAiDduHLYKisTh6enpUNqHBER9Q2QBR0DEBpDD5HZXBmzq7sGxJJ1SuiqyOGrj5yhXK4nulZ3ET3rbO/8Up5K+saaN/LIlEKodSH43S3tmJ+np1H5Qk5E5lwYlCgAkghcLaHfetBXC5qvix6lqs7OlFRPGw7LaNSxGPhmPt1e/csB4a1CXDFA5SAhPpHAbHU6U5t/csge5VCquAAutW37NrnboGiIKNS+EpHIT4TVUFCCEElq5Zj8a6qny6o6gdTRO4dkPJji0u2tLWOmzqbsMrhwf97opC/i12CIXz8n/TdjAwnkRLXRXiUXULpM7X3NqCxoYGZaeE6La4B8CbSoITBRwrgBQOUtyuKnTDok50LmpVXutav7QFDdUxxa1468YrVvjdBQoQ15UYSqQxmcmVpD0BYNmKFcriS03eqSw4UcCxAkiBt2Hnx2rtnLxKRWyhaVja3YN4ZKHDsvNPGzeval9gG/65em0HooYOy3H87koFCdCw+wwF0kQyB9uWaKqLL6C3hf3EotZWxKuqkM1kCm5pThJX9dx2b/3BHzw84X1womBjBZACzzEjbwegZMypsbUTzfW1KkJfYm1XU0na8VI8YmDd0ma/u0EBlMqaGJlIKx9EF0JD1+IuVeENPaJtUxWcKMiYAFLgSSmuVhJYCHQuW4GooX5RRmtDVeiGf8/YsEzxprwUWpmcjbHJrPJ2OhZ3TG265D0B8Q4lgYkCjkPAFAZKVv9W1zagqbEhvyHcgs2v/tHVWpoqowrdHY1+d2EaJRgm9W0kNlwLU1I5E5GIhroqdRs3x+Nx1Dc2IjE+piL8W1QEJQo6VgApDJQkgA2L2vNn/ZZAe2NNSdpRYXFLeJNXKo3xZBZZ01baRmvbIiVxJbAZu3fzvZAqDh/0FGw7d+oAVqoIvaitrSRFHiklYiUYZlaltV7dsXhUPkYmM0pPDWltUTYVobbn5REegE0Vh0PAFGjrnCVtroIFIEYsjoa6uukTQA+zQldKDE1kEDHC+1krFjGg6xpcN0hDkyXoS5DubiDM/sSQLjAykUF7U+1c37mg1mtrqhGJxWHlvJ9zqEttA4A9ngcmCrDwvitRRZCuq+Q8sqqaWsQWvPXL/LhSYjCRhmk7iEfD+1lLCCAa4gSWSseyXUyk1OwRqAmBxgY181GF1FYrCUwUYHxVp2CTQsm4T21dPTSFZ/5KAEOJDCw7PyRm2uHeR+/M/SCay2TGhFRUPa1raFASV8JVeOYcUTCFtyxBFcF1RZWKPK22phpipsAevHmNJbOwbPfs1hWZXHgTQNN24Lqy9ItiA7Qf8vyErsMFmu8TQyJrWqiOe791Z12togVJQnSrCUwUXKwAUqAJCCV7S8QUnmWaMW2kstYF/28iXZqjs1QYT4a37+SPnKXmA091TbWSuAA6VAUmCiomgBRsQirJ1KIRNQmgBDA+zRyovpFJJe2VQt8wT8miwqia8hCNRGAoee6KNgVBiQKNCSAFnFQyrmboen7EzuNbJmfBcV0IgQtufcNJFXejJE4MJy+5Pwu7icJuoftPyUMqlLczUwY8uZ33GDJ0DZGoihN1ZOOWD31I3bAAUQAxAaRAk1LNSg1d0QLg5EVDv2ccG0pgIm2qaVSx148O+d0FChnXVbNoSBOAYSiZui7Gh+rDd1g3URGYAFKwad5XADUhIBQ89F0pZxz6khLYe3LU8zZVc1yJvX0jfneDQkYi/9jxmhACuq6mUBfNSe54ThWFq4Ap0DSpCenxjrxCU1JUhDXHvKdf7DmJq1eHa675S4cGkMnZOLOauTgF/h7V/JoqjH8X0ZUSuvDgg9Z5DxshAE1XU7eQMalibJkosFgBpGCT3lcABQRUDCzPVfF44cAAMorPS/Xaz/ac8LsLFFKOo2YzQF1TNH/DZQJIlYUJIAWaVLBbs6r9n+fa/DZr2Xji5WNqGldgcDyNZ9885Xc3KKRcRbtBa7qaJ7AtBUfEqKLwAU/BpqACCJxbkVrqmI//8hBu27ICUUPtMXRe+O5zB/NVTb9GEUtyFm+5jzMXeRGLuTxnlvF6TPNiWJmIWAGkgFOUAJYkt5jGeCqHH7x41KfW569/LIV/e/W4390gIiJFWAGkQJOaEEJBtiaE98WJ+RY8/vln+3BN72IsagjuosOv/PA1WK7j8XB5EKttfn0UCIkLLk9hv79zuyN6LYiPI6LwYQWQgk3VELCasPNiWg6++sRrc84Z9MtPXj+B144O+t0NIiJSiAkgBZoGRXu2qCgrFuClQ4P43guHfO3DdE6OJPHVJ17zuxtERKQYh4Ap2IQrlJwGJ2YZnFpgc2eOq5qvv//Jm2hrqMbWtZ0La9Bj46ks/vifn0POchQN3QW05Bk4Ytov/Vf4Po6edP+iIJqiz4RElYYVQAo0KRW92gcgF3GlxCPffwX7T4753RVkcjY+979ewFAi7XdXiIioBJgAUsCp2gZGRdTC5Swbu7/xCzy717/99oYnMvjPf/fvOHDK/0SUiIhKg0PAFGhSCjXLgKF5NLomLvhqIUOnjiPx8PdexvBEBndetaqkyenevlF88fEXMTyRCUxSPD+h6myB5LRfho2ibQDL+jdPVEpMACnYNCnC/CY4X44j8fWn9+C1o0P48K2b0FqvdosYy3Hw7WcP4Fu/OKDsxAYiIgouJoAUaJqUQlbQZ/7Xjgzh/q8+jf/wtjW4/aqVSk4MefnwIL721OvoH0t5HptINa9P8CGqVEwAKdjkbMt1F07MNj610IKYR2NepuXgG//+Jn740hHc/dYebNu4DPFocYmglMDrx4bwLz/fj319I2e7O7egvtmWoGoZ1LteEP/uhGfHLbJATaQEE0AKNKlJNdvAhODdfSyZxdee+jW+8dO9uGpNB65e04kNy1pQE4/M6+cdV+LAqTG8fHgQP3ujD8MTXOFLRER5TAAp2KQm1JQAwlNWyFo2nnmjD8+80QdNE1jaUoeO5lp0NFWjNh49mxDmLBuZnI3BRBqnx1I4OphAzrR97j2Rx4L/2Y0oFJgAUrBJqWZP4tnW6xbRXnEjXnP/sJTA8eFJHB+enP37ziS4RQ/BhSdR9lzBdz2ImUkZ/P4uvqxBvMxEIcR9ACnQpKZmxjfnkROFE5+6RN5gAkjBJtVsBF0OhREiIqKF4hAwBZoGIaSCbE1os6xQLKi5c98spv5bOGalF5j1UgaxDsTf3/kEZqq0F/i7u+iyBvE3TxRGrABSsKmqABJRKHEfQCJvMAGkQJNC0VnAKoISERGFBIeAKeB8+Li/wBaFCNLiksB0ZOFmHVEt5+HWAP3uilwRP321rrjfXYCuDlGosQJIwaZqCDg4mRoREVHJsQJIgSY1TQipZiPoGXPAgpoT531V7CIQLxV5zYJyN5QL4h0NUHWziK6ourJB/I0RhRErgBRomqIKICeSE4UUn7tEnmACSMEmVb3a802EiIgqF4eAKdCkJoWSEbGZNykr0LnO6YaGWFQvPpYH97fovRPlJV+UXkkWgcwSp+Ampv8B15WwHLfQYHmB+pxSYGeUrYoK1EUhCi0mgBRsUgoVL/gqdpeJR3TEI1VFRPAyAfQqQAUngB7FSmctjCWzHrZT2TgCTOQNDgFTwKl5uef20kREVMlYAaRAk0IKFdU6AQ4kzUpc8oUHArS6dT486m7hI6HnfXOgLllhnfHsOXZREC7gIvIGK4AUbMoWgRAREVUuJoAUaJqiQh2zSiIiqmQcAqZgk0JAeD8OJoTwaHZhUFNJr1YBB1UJrrtHTeQfa4UEC/zFn5eZh74LvLAXXQ4tqE85opBhBZAqE99EiIiogjEBpECTKlaAAOVSZCGqQPz0RuQFDgFTwAmhIlsTwqtzexVkkmX7/hayFcVerQKGn79SP1v26GTssn0+EPmLFUAKNkVnARMREVUyJoAUaFJTlAAyrSQKJW4MReQNDgFTsPmxD6DfbzAeDD16NPiGip4sWfAlnP4HCjIP1UoAACAASURBVF8F7CX/fn9CySGO/j89icoFK4AUaJqqIWCWEYhCic9cIm+wAkiBJjVNQCpYBALp0RuJgrcjD0LKsq/clSANKPgSluE1FzP+ZR4/O9NGgAVep4u/nR/eiDzBCiAFm6IKoHdDpERUSq6CD4RElYgJIAWcmo/7XtX/iKh0bFcilbX87gZRWeAQMAWbkELJVnsCM+eWBbUXzGqEd+mtj3v3lUuOPuORaLP8QFDIGf8yL17eE1tK9I9OwnGD+ZwjChtWACnQpKpFINxekCg0bClxemQSlu363RWissEEkAJNUzQEzHnkROHgSKB/JHk2+eNzl8gbHAKmYJNSqHjFzx8FN9M/et7cPE017MEIV9Ehzl4DH4fbStK0+l+2KPhQtPPueIiTHTHjGXjzv1Oumx/2NW3Hq24R0RQmgBRoUtUOulxJSBRolu2gfzR5ybAvV/ATeYMJYLnZvVtb9WqyVTed2rP/T9Oimm7V+NirBXNdtHv9cu+6EseOn0AkGpvxe4SuQ/Mo99R0DUIrYLbFLLmppmnQ5hHLu/TWy0S5yP3fiok1D4amo7WlyfO4VDjTcnB6bBKOww9qRKowAQyhNXfc3w1D9GrS6XahrRWQqyGxDAKteGm8FYCAfv5POJBuOKd7qvis77gufv3rXyuITGFWW1uLW2650fO4M+6HPB/ejeWX3MxD37Pfqaxp4/TYJFyu9yBSiglgwF1+86dqzCrrWhe4XkDbConNgGyClJAQOLtHCkdFiCjkkjkTg2Op2Wdo8LWOyBNMAAOo5+57V2nS2CmkvDMH+2pIEcm/5nE4hIjK00Q6h+GJNKfnEpUIE8CA6N752QbDzL1PSPEBuHILkz2i0iuuuDT9Txe+CnjOkAXw73WkkKHvsWQWIxOZecZlCZDIC0wAfbbm7vuvFq78MHK59wCoYeJHRJVkdDKL0cn5JX9E5B0mgD7Ytm23caph7LeFFA/AlZv87g8RUam5EhgcSyLJs32JfMEEsMTW3HX/Pacx/t+EFJf53RcimoVXI40zbog8D4EaECj0Tsx8xx3XxenRJLKmrbwXRDQ9JoAlsvruXVdoDh6ElNv87gsRkV9M28mf6+twnxciPzEBVGztjs/UCZh/Kl18FIJnLxNR5crkLPSPTcJxF17a5CIQIm8wAVRozV0P3A5p/oUElvndFyKam4rUQqDQjaCDmuAUlrRdvAp4eCKNMS72IAoMJoAKbNj5sVo7F30I0v09v/tCROQn15XoH0silTX97goRnYcJoMfW3H3/1XZO/gOAVX73hYgKc0GlzqMFGIXvAxiglR9FFCOFAGzbyS/2sApf7DFbXCIqHhNAD63dsev34Mq/ABD1uy9ERH6aSJlIZnNwi5jvR0TqMAH0ws6dem9uyeck8IDfXSEi8pOUQP9oEhBAXRU/CxMFFRPAIm3Z/qHqVK76nyVwh999IaJiiCJXmE5f6SrkSDTvFdlwgcW7nO3g+GACmZyF1obq4tqeAUeAibzBBLAIK+7e1Zh08TiAa/3uCxGRn4Yn0ugfTcKVHPIlCgMmgAu06p5PtRmO/SSAy/3uCxGRXxzXxcnhSYynsqVpkKtAiDzBBHABeu/5eItk8kdE81D4SXBi2i8XRm01LpkxcWJoAqbtKG2HiLzHBLBA3Ts/2yBz5o8AyeSPiCqS7UicHJ4oXdWPiDzHBLAAPbfdGzNyuccksMXvvhAR+SGRyuHk8IRvZ/lyAJjIG0wA50/oEeOrEvJ6vztCRAoUfmbbPOMWugxYTvul31wpcXokieGJtN9dISIPMAGcp94du/5IQr7P735Mx9B1RCMGquIx1NTWIR6PIRaLQzd0aJoGXdMXEHXmdx4JeL7Sz3W9rSZICchZ+zjLv03zT/JMUI9Mfw2Li3/+hrvziSQdF447w9wtme/f/O+yhOPMcdqDnN/jxpUSrj33yRGz/37PsSxrXt9XU6Nm25JyMJbM4tTIBGyfqn7nK26rnpndsOLl1Y9+CZqS4GHjIKXrOHt2nyOQfHYAw7t3w/8HAHmGCeA8rN1x3/sk8H/53Q8g/+IXi0bQUF+H9rY2NLU0o7a2HvGqGkSikeIbkJd84YEAlTHO8qpPCu6bByGLDhH4x0EQH1Plx7JdnByZQCKVQ7lf863tbz6iuVjkdz8CQQDyvFRPA/D2VsgnH8EwgEkJDAvgqBQ4qrnYLwRe1mqw54YPgJNCQ4QJ4BzW7tj1dgBfhc9TT6riUXR0tGFp11K0LGpHvGq6aoWXL9A+3d1Z70IQ34C8vE7S+5BhNuuv26uLpP4xVfgq4It+uOjWCyelxFBial8/HuVGeQLAIgCLBNAN4GohASmmRjRScJ58BIcAvCmBZ4WGnxqD+NUNu+HdQdDkKSaAs1iz/T+1As4/Aoj50b4QAk0NtVi9ei2WdHUhNm3SR0TknZGJNAbGUvmtXQKY+3EbwMDSAawBsEYAd8EF7FaknnwEPxMCj0kb37vpPhz3u5N0DhPAmQkB538C6PKj8ca6OqzfsA5dy5ZDNzwY2iUimkUyY+LkyCQyufnNmSSahxoAt0iJW6Dj0ScfwR4J/JOm4es3fgyH/e5cpWMCOIPe7bs+IQW2l7rdWDSKyzb0YlXPWhiRQhM/Dz4anw0RwI/+nprlWhV018v0OolLvgiYIF73Ga6VKGLhgneTOWdk2g5OjyYxOpkptrGSEIF9TNI8rBfAf5Uudj/5CJ4TEn9VbeEfrnkA4XjwlRkmgNNYffeuK6QrP1fqN7+urk5s3vIW1NbUlbRdIqo8luOifzSJkcm0lwvcieZDAHibFHhbKorPPfEovhoBHrzh4+j3u2OVhEveL3L5zZ+q0Vz5DUDES9WmYejYuvUtuO66bUz+iEgpV0r0jyWx5/gQhieY/JHvmoXEZ2yJ408+gr994iGs9rtDlYIVwIvkqqzPQYreUrVXUxXHde+4Hs2trcEY1QpCH2akYMWt6mYWwoPfgd93ITxmuVIFX8Tpf3EF7wOtiONKDIynMDSehuPxvpulFIRrSUpEAPyu0LHzyYfxFzkd//edH8OY350qZ6wAnmf1XfdthRQfKVV7zc1NuPHWW/PJHxGRApbt4uTwJF4/Ooj+0WSokz+qCHEI3B9zcfCJh3Hfv37Rn104KgErgGfs3KlrOfEllCgp7mhvw3XveAei0SgCVXYL9OT/El2ngpoJ4nUCZJAeU2cVeK1KcmkLOxGmNLy546msicHxJMZTWQ7zUhg1C4EvRAV2PfkwPnLTvfiR3x0qN0wAp/TmFn9UAptL0daSzk5c+47rYRi8/ETkJYnxZA6DiRSSGROB+nDpFY4BVxQJrIDAD558FF+uiuMz134Qk373qVxwCBjAhts/3SEh/p9StNXe1oa3X8/kj4i847guhhIpvHl8GIf7x6aSP6KyISDxkUwGrzzxMN7ud2fKBbMQALZhPQSgQXU7zc3N2PbObYhEAnzZy7BgMD2vJv+X6QUr07tVkIILTdP/gBCiwH0A53/xU1kLw4k0RpOZijmyjfW/itYtBH76xMP4k/F2/Nd3vxuO3x0Ks4qvAPZuv/8dAHaqbqemKo53XH8dIgVv7kxEdI7tuBgcz1f79p4YxvBEumKSPyIAuhD4L82D+PbTj6LW786EWaUngEJCfg6KP1Qaho7rt70DNXV8rBJR4VxXYjiRxr6+Ebx2ZAAnhiaQ5pFtVMEksN2WeObpL/pzXGs5CPBYpHpr79r1HyBxtco2hBB469ar0TLrVi9e5Z9B3UAuiIM25bv605NIQTgScNamw/OYElhYbyWAyXQOo8ksxpNZ2A63bwGKOFaPytEVtobnf/Ql7LjlY3jR786ETcVWADfs3B2FFJ9T3c6a1auwYuVK1c0QURmQACbSORwdTODVwwPYf3IUw4k0kz+imS3WXPz0yUdwl98dCZuKTQCtbOL3Aak0M2ttacbmzZu5bQERzci0HQyOp7D/5ChePtTPpG8OfDmladQA+F9PPILf9bsjYVKRQ8BdO++vEjn5n1W2EdENvPWtW2FEovP47qmhoyC8sPk9lzwI16AgJTqertSR/H4cAP4/Fjy6BhcfBSclkMyamEibSKSySOcsbtRMVDxdAF974lHYN38c3/C7M2FQkQlgTc79BCCWqGzjiisuR1Nzi8omiCgEpATSWRuJdA4T6RySGRMuMz4iFXQh8bdPPQrrxo/jX/zuTNBV3BDwhp0fqwXEZ1W2sailBWvW9apsgogCLGPaGJnI4PjQBN48PoI3jg+hb3gCE+kck78iCd9LwxRwhpT4xycexXv97kjQVVwF0M7FPghIZaU5XdNw9daroAk/cmsBCcC0HORsB7Yj4bgunEL2CJOXfDErbV4TcgpvPx/24tjevHFqc3W5oGbOfXPxqxNnWEUq1K18nPFaeHCpL41dYNAZvj1/LbxPoi65xvNswnQcpHMWUlkT6ayFTM7C+U+5nGV710kKlVhVI1ZuvMfvbhRO2nAdG7adgWubsMw0TDOJ7OQoMskB2FbK7x7ORRcSf/3Uoxi78eP4od+dCaqKSgA37NwdtXPjn1LZxto1PWhumW3LFzUypo2s5cC0nJJO35pfNWMBCaic7ue8uWdzbh2/wASweAGqDBX4QaDAoB58ewmu1TRN5GwHmZyFVPbMzYR1drFGgH5/5SxEBcBYdR26Vr+zuCABu7/SlTBzSWSSQ0hP9CM5dhwj/a8jNX4CAXsORKXEvzz1JVxz48fwmt+dCaKKSgAtc+y3BISyTSOrq2LYePnlqsJfwpUS6ZyNdM7msBKRRyQkTNtFNmcjk7OQMW1kcjYypg3H5cpcKrGAvbQLTSBWVYdYVR0aF3UDuAbAbyGbSmB8aC+G+l7B8MmX4Fhpv7sKADXSxbd/+HlcdesDGPW7M0FTOQng7t2a9lLis1Lhs2njxo2IxeML+Mmpj3jz7JorJZJZC5mcffZH8vNiAvZKcVYBH2FL9mk3iNeqsMfBbFQ+zktm1sdCkQ8UKZGzHeQsG1nTRtac+tpykDOnPlCVwSUk8twMz4t4dQM6lm9Fx/KtsMwsRk+/gZOHfoKx/tcgpa8fnLq1KP7xn/8Zt/Hs4AtVTAK49sXEdinkelXxG+pq0dPToyr8WWnTxmTG5LYRRLOwbQeW48K0XVi2A9N2kLPO3GyYtjP1HOITKYyEEJB8EQysSDSO9uVb0L58C5KJfvQdeAon9z8FKf3JvwRwU9MQ/juAT/vSgYCqmAQQwr1PZXnp8is2wTAiC/zpufcBzJ8QYCJj5ieUq98M1af97UL3mq7gOgVqzo+PnZGA7bhwpYTrSjiuhO26sB0XtuNM/XnuZjkuLNuF5Tj8gEQUELUNHeh9y/uwvPc2HN3zfZw6+G/+JIISn3riUbzEPQLPqYgEsPfuT26RrrhBVfzW5masXLFCVXhIAOOpHHIWq9fkDceRkJBnV4ifOXXCcWW+sjJLAjXdPLizP3ceKQFnmqEfZyqpc9xzq9TPJHhn/y4lXGe2LI4ZHlGYVNW2YN3V/xFdPduw94W/QWJ4f8n7ICS++uSjeOWmj+PNkjceQBWRAEpH+wOVhYxNmy6HULjty0TaZPJHF5ASsGxnqiImz1bAzlXDnHzF7Lz/D+STt8IWbpfpKmcKtSDPeKbZ1TUvw1tu+j9w6vC/Y9+LfwfXNkvZfLWU+Ound+PtN+xGxe/PVPYJ4MY7PtpkCrxPVfy21hZ0Le3yZkh2mle0tJmfpD6/8ME8lqwgKif+K+H9dTKtfAJ3Zv5a1szPYbMcF1nThuW4cOfY27EsFoEQhZ5AMF+3/CU0HUt6bkBT+zr8+uePYmLkSOnaBq62WvEZAH9SskYDquwTwJwe+4DIHxStxGUbL1O2Sa/jSkxmSvrpiErElRIZ00bOdPLbjJg2MqYF03Jg2dxqhGg2Qghwomf4Vdd1YMuN/yf2PPf/YeDYcyVrVwB/9NSX8L1K3x+wvBPAnTt1kcN9qsI3NTVh6dKlqsJztW/ISQmYtoN0Lp/cZc9L9mxnuiSPv2yissMC4Kz0SAyXXfsJNLauxL4XS7Y+Iypd/OPTX8PmGz6AbKkaDZqyTgBX55bcCmCZqvgb1q/zqPonLvgDyCcOWdstcLlvUBOIAu6D36c/AAt6wZYukDatqY2586dEpHMzJXpERHSGEMDSdXcgWtWMN37xl3Ddksx5X2cn8YcAdpeisSAq6wRQQHxEVdJQU1uN7u6VSmIDwGTGUhabiiTzR+9NZkxMZkykshYypsVqLVGpsKpWltpXvA2GYeCVn36xNPs8Cvzhj7+Iv/uNT+KQ+saCp2wTwHXv2tXp2vJWVfHXr1sPTVOz8jc3NeGfgsFx5NlkL5mxkMyaZ7dPCW7VlYgofFq6rsKVNzyAl5/+fCmSwJjU8CCAHaobCqKyTQBdB78HRfcvEjGwdnWPh4s/5AV/JDOWfx9wxSVfeCBcSVLOdJBI5TCRMTGZNpHlFjxEgSJCVQIMU1+DoXnxZmy89qN47ZkvKW9LAtuffBjbbroXP1HeWMCUawIoIPF+VcFXrVqFSDSqJHbOdjhvrMQcV2IibWI8lcuftpLjcC4ReYUJ4EK0Lb8WvdkE9r7w9+ob0/D53bvxlt27UVFvvmWZAK6585PvBLBaSXAhsH5dr5LQAJDKVvzelMpJCaSyFsZTOYynckhmL1ptzeSPiMh3XWvvQCpxCif2P622IYkrr2nBhwD8pdqGgqUsE0Bo2gdVhV7c0YmGhkaoyBIsN78B8MJHlj34pKnkBAivLPz+WY6DsWQOY8ksxlO5aY8zI6JwUH8WuodUv5SG6VosQM/m92Ni9BgSw4eVtiME/ujpR/H1Gz6OpNKGAkTd+WU+6d752QYB3K0qfq/C6l86x+qflyYzJo4NTeDlI4N44cAADp4ex8hk9rwFHEREIScDdvOYbkRx+fUPIBpv8D74hTociXtVNxIkZZcARkzzXQCqVMSurq7BsqVLVISGlBI5kwlgsSazJo4OJvDSoQG8fmwYJ0eSyDCxJiorqk5fUkJU2E2BWHULNl77MTXBzyOBB55+FLXKGwqI8hsCllLZub/retcq2vpFTFX/il3b5sHHLyVPYI9XS19kImNiaDyNkckst88hIio7Ek0dG7F8/W04tucHKhtqtSQ+iQo5J7isKoBr7rx/CYBtKmILIdDTs0pFaGDqXFiav3TOxonhSbx0eBCvHx1G/3iayR8RBZDfJbnyuXVf/h7UNHQU+gsoiAAe+NlfoU5pIwFRVhVAoeE3oSipXbx4MWpqqlWERs52OS9tHnKWg8FEGkMTGQ7rElWwMI0AK2GPANYJdfGFDogIIKKAiANaPaDV+H7hdSOGDW/7CH75w90qm2lJZ/EhAH+uspEgKKsEEFA3/Nvbu/aix753T4SsZfv9vDrnbB7qZYcWnty6UmI0mcVgIoOxZIb78xFRiKiaGOcA0lQQd4oEgMxF/1MD9AZAbwH0xnyS6IP61l4s670Fx/f+SFkbQuJTT38Nj97wAWSVNRIAZZMA9t7zwBrpuG9RETsej2Np12IVoeG6EiZPmrjEZNbEwFgaw5NZboxNRHQBhSsuZiQBZzx/gw4YrYDRDmjxEvcDWLnxN3Hq8DOwzbSqJjqsNH4LwF+raiAIymYOoHScd6uK3bNqFXRdzaedrGV7uHLeg3kW4szNm3CF3GzHRd9IEi8eGsSrR/Lz+pj8EdHFwnUUnAp+7+3iAPYAkH0dyB0E3NIWyiKxOqzd8jtK29AkdiltIADKJgEU0N6rKnZPT7eq0Nz7D/lTOQ6dTuCFgwM4OjjBBTFERLMq9Sf0mUjAGc0nguZRQJbqtVugY+UNqGterqwFCWx64mG8XVkDAVAWCeC67bs2S8j1KmI3NDWipaVZRWhYFbz4Q0pgMJHBq0eG8fLhIZweS1XstSCiAgVm0jTlScAezCeC9khJ2hOahjVb/qPSVjQNH1HagM/KYg6gq+G9qo7bWb1qlbLBhnOLP7xqwYOLoOQ6nrt/OcvByZEkBhIc3iUqZ0qHaUO1GkzFdfBjDuA8SBswD+fnCUZXKl8o0ti2AU3t6zE2sEdJfCmx80d/gf90y0cxqKQBn4W/Arhzpw6J31YSWwh0d69UElpCImtVzlDneCqLPSdG8MLBfpwcTTL5IypzSvbMnyIDeVZ5ifmzFd/8bu4oYL4JSEvhBQCEEFh1xXtUNhHTXHxUZQN+Cn0C2GstuQ6AkiW6bYsWob62RkVo5CwnXB9iF0ACGJnM4vVjw3j92AhGJrNlf5+JKE/lcW1uxU8X8TvDm8fNzQDmQSgaVjqrYVEvmtqUzAADAAiJ/03KIJZbixf6BNB1oWzxx6pV3cqeHlnTgTj7n+9P1XM3ceYmFnyTAE6NpvCrAwPYc2IU46mcV78SIgoJXWUCyE+S4eAmAeuk0iYEgO5NO5XFl8CKH39JzQljfgt1Arht225DAO9SEVtAYOWKZSpCw3YlTLv8hkBdV+LE8CSe39+PQ/0JZLm/IVHFihjq5n9JFRXAMq3yqFFAWcHuB9zJwn6mwFtj+3o0tK5Rdm+lxG8pC+6jUCeAp2pH3wGgVUXsziWdqKmqUhG67BIj23FxbGgCzx/ox5GBCVhlmNwS0fzpmqZ0oa6SCqAmI56HFBEoSXqkBKSY/83zPhTIPAxA3Zx3AQ0rLrtHYXzs/NcvIqasAZ+EehWwpmn3qBoI6Fm1ao45LAtv2bQdRS+OHgSVl3wxI0dKnB5N4fjwJJM+IjoraqirLdi2mg/QAvA+ATQ8DzmlwPcfv0fMpQWYfUB0haoG0LJ4E2LVzcilRxVER1NExx0AvuV5cB+FuQIoJHCXisCapmHlsqUqQsNyZOhXwDquxNGhCTy/Lz/Uy+SPiM4Xj6qrLViqEkAhPa/waHoMaoY9paK4Cm/2MOAklcXXtAiW9d4x/19OgYTE+5QF90loE8A1d99/FYAuFbGXLVuGWCyqInSot35xpMSJ4SSe39+PY4OTsEKeyBKRGjGFCaCpKAEE4PmkRV1XVQEM6WuvdRwqy5EdK66H0NRccwnc/r0voUlJcJ+EdghYc9x7pKJJJqtWrVQSFwBMy5lmoFZc8MfCqXliOa7E6bE0TgxPIldm8xeJyFtCAPGIwgqgpXZvOS8ZUTXzyAEglKehyEx+k2hdTR4Vq25Ex4prcfrw00rCxxzcDeBrKoL7IbQVQCmEkhmfkUgEy7uWqAgN2wnf0W+DiQx+dXAQB0+PM/kjojnFoxGluYlpqkkAI5r3ozORWKPnMfNc+D6ku9Db2W1h1MRf0nPTwi/rXATuVhe89EKZAPbcde96AGtVxF65cgUMQ82n1zCt/h1PmXjx0CD2nBhFxgzvsDURlVZNXNWwZ14mm1UStybifdxYVQOUJDoyxK/JMgc46s4Lbmhdhaq6TlXhb/rR/4Ca0yF8EMoE0HANZVl498rl83wOioJvWcud4d/gwfCvNzKmjV8fH8ErR4YwmQnPUAsR+U8IoCamLgE0bRuW6X2iJqSUNZGM53Gj8QbPYwIIdwIIANYpqJqyJDQdi3t+Q0lsAFVaNW5RFbzUQpkASiFvUxHXiESweLGaTw6W7QZ693rLdrH/1DheODCI4Qk1n7CJqLxVxyLQNHWfZlOZLKTt/QfTaMTOasL71+dIvN7zmHkh/3AuTcDxfruWM9qWboUQitIbWT7DwKFLAHtuu7cewFYVsZctXQpDV7N7fZCHf0+NpvDLgwM4NZoKdJJKRMFWV612r9x0Mqkkbm0ko6SkFo23qAgLSAe+z+Ur9mb3e39dptTUd6K+dZ2q8Hf86sve7xnph9CtAtYN4wbA+x3bAWDliuUQ8x6LLSxRmn7170WK/uBcWICxZBb7T40jnQv5cAIR+S5q6KhSuP0LAEyOjymJ21EzouSTf7xmEZTM75FnFoGEmJvLnxWs1SkJv6RnGxJDb6gI3Txq4XoAP1YRvJRCVwGEcG9VEVbXNSxbqmRbQZgBG/61bAd7+8bw6tFhJn9E5In6GrXVv5xpI5dKKInd3XS62uuYkWgdjIiC9QLShP9He3jEHlQWuqnzCgihZkRPA5RMQyu18CWAEEpmd3YuXoxY1FjI2o45bznLnuN7RP5W9H+zF92llDg6OIFn9/Xj9FgKAcpJiSjEIrqGuio1m+efMZ5IQLpqptIsrxvwPGZd8zLPYwLIr6ItF844INXMOa+qbkZD23olsV1ASSGq1EKVAK7d/omVAFariN29fLmKsACAnLqd6+dtNJnFLw8M4MjAROj2IiSiYGuojStvY3x0SElcASmXNXo/H62mQc1xouFJAOc7F3Bk/t9b4K1t6VtV3bP1Tz+KDiXBSyhUcwCFiNwkFZW+u7oWK4mbsxxfK22W4+JQf4IVPyJSIhrRURtXW/3LZHPITKqZ/9cUn0xXGznPx2rrW1ZByY7Y0lQT1y/uKCCWQMWcxubFV0IIDVJ6fnSesFzcCODrXgcupVAlgBK4UUXc+oZ6NNTVFvhT83uwmrY7j4UlspCQ83ZyJIVD/Qme2UtEyiyqr1aej4wMDwKumtex9a3HlExerGlYPvNUvWKul8wVGSBgpA04E4Du/Z6JNfXtqG5YgdT4Yc9jC+AmhDwBDNUQMCCvVRF1+TI1iz8AwLRKn3xlTQevHBnG3pNjTP6ISJm66hiiETUT7c+Q0sX4sPdz9M7Y2HbY80KIEBqq62d5X5FF3NxccT8/3c1vivYEFEKgfcXblMQGcJOU4c7EQ5MArrnj/m4ASnZp7lqsZvi31Kt/pQSODk7i2f39GJnkZs5EpI6ha2ipq1LezujYGGxTzby3iGbneluOex63un4JjIiKeZEynwAqCOvrzU7k9zZUkJC2dF7hbcAzBDqfegSXqQleGqEZAha6e42KsrfQRP70j4LHMOZ+lOZsp7AuF/HAT+Vs7O0bxXgqLBOEiSishADaG2uUD/1K0EUMeQAAIABJREFU6WKgz/sE7YwNi45ldeF4PgTc3Hk51Oz/l0X+jSLUhadpSMBJAHrL2b96pbZxGYxoPWxzwrugU4TADQBe9zxwiYSmAighrlMRt6O9HdGomk29zRKt/j0xnMQLBwaY/BFRSTTWxJUP/QJAYmwcZjatLP5bF7+h5LDe5vaNKsICbiHXwueTPgq9OQklcXU9hmZFVUAXUJKXlEpoEkABKFnP3dWlZv6f7bjKt1vJmDZ+dXAQ+0+Nc2sXIiqJ6lgEjSXY9gUABk+dUBZbF05ujYLhX0CgvnUtlCRJbqaA7w+auRLAJAA1c9ZbllypJK4AlKxLKJVQJIDdOz/bAKgZa1+ypEPJ5xnLdgv4/qn/xPxvg4kMXjgwiETaVHFZiIguEYsYaGtUcLrFNCbHR5BOqTn7FwA2tR1KRzXvT0KqaehCrKrJ87gAphLAsJprIqAzVQX0XmPrOgihJN3peOoRrFERuBRCMQfQyOaugfA+WdU0DYtamr0OC0Dd8G/OcvDmiVEMc5EHEZVQ1NDR3qR+3h8ASNfBqaNHlLZxS/cLSrK01q4t6gpwMouy2gPwYm4CMLz/tVTXtyFe24nM5EnPY0PiOgD7vQ+sXigqgNDkVSrCLmptRcTwPgeWMl8B9NpQIoPn9vcz+SOikopGdHQ210LXSpN8DPefQianbk7zourx00vq1Jws0tK5RUnc/Pw//0+VUsqdVBJWCA0tnWqGgV0R3nmAoagACik2q4i7eGr4N99IoT898w+YtgOIubd/Pkde8MfFXCmx/9Q4TgyrGw4hIppO1NDR0VQLrUTlAjuXQf+pPqVt3Lnq2XoVcfVINRoW9UJJCdBNqokbJNIB3BSgFXoww9wa2zegb//3PI8rQrwQJBwVQEDJkqqO9jYVYWF6WP2bzJh4dl8/kz8iKrmqWASLW+pKVvkDgP6+43AUbmAf063EFR0HlUxkbFu2FboRgZIN7dwKeQ9w1FQB61t6VM0D7H7yISxTEVi1wCeAPbfdWw9gpYrY7W2LVISF5dH8v+PDk/jlgUGkc95PVCYimk19dQwdJZrzd0Y6MYqRkRGlbVy/9FVTF2qGUhct3Qo1K3FlvjJWNBVLHr1e6awm0a2qbUW0Ss17vjDCWQUMfAKoGZqSHTXr6+tQU1WNhT9QpyelhOPKhUUV+Zvtunj16DD2nRwv6UkiRESGrqGjqRYt9epP+Tifa5s4cfQwpMLXPF24yZtXvqAkC9D1GJraN6kIDbhZQLooPsEKATeVHwr2mBAamjvV7M8oXVyjJLBiwU8AIZTM3GxvUzP8W+zij/GUiWf39mMwEebl/kQUNkLkq35drfWoipV2eriUEv3HDyOTVbuZ/Q3LXx6oiqhpo23FtYhEq5XEVrU4IrA8qXZeqqlN0cltGpQdOKxS4BeBSCE2qTiturWlxfOYAGAtcO6KBHC4fwKHBxJg0Y+ISkUIoK4qhoaaGAzdn5rA5OgAhoZHlbaha87o7aueW6Uqfmf3O6GsyuZMqIsdRG4S0L0/pKW+VdGWfRIbH/8yqrd/GOqOrVEg8AkgIC9XEbW1tenCuS0eJV224xY8Z8Z2JN44MYr+sVA9dogoxCK6htqqKGqror4lfgBgZ1M4efyY0qFfANi27NVTUd1SsvFrNN6MxkXrVIQGpK2sIhZYiuYBVte1IxJrgpUb8zq0ETNxJYCfex1YpaAngAKAkmdVS7OandrtAiuAyayFl48McaEHESkhBKBrGjRNIGboiEUMxKMGIob/M4Bc20LfkUPImWpf/wzNHbqj5xcbVMVf3HMjNF3NmfL54d8Kqv4B5+Y8Cm/Pm9b0KBrb12PouPd5miawFUwAvbPuXbs6XBuebwgUj8VQW33RXA0P9gG0HReygPLfyZEk9vSNwXXVbXlAlUvXBAxdQ0TPv/nrmgZdE9A1AW3q6/O/9wxNiPMq4l5WZYI4t2GWPhXcXa/un5z2y6JjBYx0XQz1HcH4hPr5bXf0/GI4qtlKFn8IoaFz1W+oCJ0XhOFfP5qXaUDUeR62qWOjkgRQAls9D6pYoBNA25arNQWPvLZFi5Qcp2PPM5GTrsSevjH0jVTIvk6kVETXEI3oiBo6ooYGQ9dg6Pkzo4mCSEJifKAP/YPDytuqjaRfu3H5r5RMJQKA5sVbUFO/WFF0qWxfvEK7UXJOCtC8TwDrm3s8jzmFCaCXNKGtUrEiolnR+b+2M3dfc5aDV44MYzyldrUblSddE4hHDcQjBqIRDVFDz1fsLiIDXPkhyowPo+/kSeXz/gA4H77y8TqVn4WW9e5QF9xJAKjQESJV8wDrl0LTY3Adz9+Dl//wy+i89cM47XVgVQKdAEq4PYUcqDZfLU0Nl1ZHPBjucRx31t6Op3J4+cgwclaZn+dIntE1gapofs5WbKrKRxRmuVQCx48cVXraxxmrW/qeXdl4+lpV8eN1HWhqV7O3HADAGVcXO+jcNPLvs97mANFYNWoalmFy9ICncQHAMLEVwHc8D6xIoBNAIYWSWm19vfdlZWD2BSCHByZw4PQ4t3ihWQkBVEUjqI5NTdT3cXUmkddyyQkcPrBX+aIPANAgB/5g0+NXqGxj5YZ3Q9MVvY1Ke2r4t4KncrhpNecCt21QkgBOzQNkAugRJQlgg4IE0HHdaYuIEsDevjEcGwrAPA4KpDNJX03cQHXUmHZIlyjsrHQSRw7tK0nyBwB3r3nmaLWRUzYvKxJvRvuK66F27z+oix8GblrJPMCG1rU44XlUABreoiKsKhWXAOqajrqa2kufUkU+x2xXXrKuxLJdvHJkGMOT2eKCU1mKRwzUVkVQE4tA0wTOTitglZjKjJVN4/DBvchmzZK011I18fI7V7ykdFJ+98b3wIgoPC7PHavo3A+Asv0Pa1sULQSR2KwmsBqBHV/qvefjLQDqvY7b2FgPoXn/rHIuWgGcztn4xb5+Jn90AV0TaKyNYWlrHTqba1BXFZ1K/ojKk5maxOH9e5DJlGbhm4Ac+tTV/6RqWS4AIBKrR8eqG9Q1IHOVt/nzdKSaI1GraxbBiHqeXgBA848exVIVgVUIbAVQmHqnVDDfvanR++NlAMBxz5VtEikTLx4e4mIPApAf4q2ORVBXFUVVNLBPOSLPpRJjOHpwHyz7/2fvvaMkOa4z3y8yy3dXu+numR7vgBlg4AE6gBRJEKATAWglEUuJj09cilyKBESCMk/vnD1nNU96+7RyBEAjaSlppSd3ngRxCUMKNCBBCgQIECAwADEYb9ub6u6qLp8m3h/Z4xptysTNjKy6v3PqdHdV9Y2oysyIL2/Evde3sVB+6IrvvZKOFwgT8wHb9n0Q0WgHXQMOfXqc5dHsZlQ6nhgWcaVmDTOK7v69yIz9WKndRa4DaFaYVaPvbGSKIQqz3T3dy6cArHvZ7VIjrgsICIzOFvDTsxm4Lq/jtTtCAJ2JGLpSMY7eZdqOXGYKZ06d8CXa9xybu6aeuGXLT2+nbCOWWIeNl72HsAW5GP2rmRgLBAG4JcBMKLfcPUAjAE1PAD6m3DAB2gpACWMjxWaodEdq7Tc1gOO6ODI6hxOTubXfzLQ0hiHQlYqhKxmDaWi7y4JhaJDA7MQwRoaH4fqY9iAinOO/8cZ/eSN1Ozuv+whiMfWRqedx5rwyaCwAPWQRgPrSrem+HcptAgAkrqcxrB5tBaArMCQIxo7U0hJwCrBdFy+fznBljzYnYhroTsXQmYxxJC/TlriOjdFTx5DJzPrcsix/5g1frcQMm2aPzyKpri3YsOPtlE0ATobWfthwiyRmU91bSexKzwMYCrR1TwgXJEvAHR0pCOD1D9HYw3ZdvHRymsVfG2MYAn3pBDb3d6IrFWfxx7QlhfwCjrz6cgDiD3j/zuee29kzto+6nV3XfxSRiNr9aJcgy4BbxjIzVPs+3AooVgMTqX6YUZKcwNufvB89FIZVo60AhCASgEl1HsCK5eDl05zmpV0xxIWI3u5UHBRVaxhGeyQwNTaM46+9ikrZ/7FwR/f4E+/f/SyxWw7o2/gGDG4hLvdqT9HaDyXS2weoGNOMIt2zXbldAMKOhMMLqO0SMCBJBGAqpWYzabFi4ZUzs6hYzqoVQJjWpCsVQ29HArzFj2lnisUiRk8dRyEfTKL7ZKT8wufe+BBZqbdzGGYcl934cQhBeMHL8mLyZ76RfB2yBEB91HX3wF7MT/9UuV0YuArA99UbVou+AlBinerrIBaNIBqNLn991eFhXihbePVsBlXLE34OR/y2Dcl4BOvSyYtKtPGxZ9oPy7IxPnwGs9OTCOoaMIQ7+l9v+budhnDVh4guYeu+DyLdQ7Nn7Dx2nXv/fNGJmohRWcHy6TuaI71ul3Kbi5BvR1CBvgJQQPlm3o7OjqbPodl8Ba+NzF2S2oAFYOtjLu7z60zEgu4KwwSGlMDM9AQmhs/Asf0p6bZCT4q/+caHiul4cRN1S/HkILbuvYu2EVldTP1Sz//QdKXhRii1oluE1xe1jaS6iES9xB4aw2rRVwBCvQBMxpvbvJtZqOC1kVksKfrBS8AtTjoZQ186wcEdTNtiOS5mMzOYGRuGVaGpzlAH1f90zTcPbesev5G6ISEM7HnTryMWJwkWuMD5yN8QjzGUglRWvbuPer6fGt6a7NwAw4zBdZSXKLxCtUEKtBSA73jH/sg45pXna4nFG/fejGQKODGxfI4/9gC2JlHTQH93EomolpcJw5BTqljIzExjbmoMTlWLYDf7P+773ks3bjhCHI3hMbT7ZzGw5Q20jcgqYM8h1OLPD2QFEHXUXq5hWo7GUkh0bEAxd7bxfi3Phie+hHW33Qutc/poObNND2S7UFF/NcRjjXkAVxN/AOD4mOyU8YfuVBy9aY7sZdoLKYGKZSO/UMDszCRKuVlIJ8il3ktw79z99I/etumVt/nRWLxjCLuv+wj9CGBPgfcS14BbBsw6BGCNpHt3UghAuBJ7ATyt3LBCtBSAjiVJqjTHG1gCPjmZw/DM6kW5JQvAliFqGhjoSiEe5dJtTHtQtRyULRuFQhEL8xlU8lk4wS/zLkW+c9tL33r3zuff50djQpi4/A2fQixBMhVdQFbq3/vXrsgSKCqCdPRuBc4oNwsDLAAbwrWNbmGo31cXj0Xrev+JyRxG1hJ/kGD91xqc3+vXJl4/V0o4jjx/Dp8r23VpHWuVJ3edtlZ9uw8XXd1NqOqTXPbXZm1JKeG4ErbjwrYslIsFVMpF2OUirHJBJ0/f67h508Enf2HPD3wRfwCwcc9dGKRe+gVqzPvXHuPRmrgVUHwXHVSBIEL/fYBaCkBpON0US2/17AE8Np7F2OzaJWhc3v8XegxDoD+dREdi8QahRQ6pZbuwHAeW5aJSLcGqVFCtVGBXK3AcC1LCm/SlhJQaBjIFLQADQ/1nk64DKSWkY0Hatp7He3nkWza9+sNf3vfErX412Nl3OXZf+7/R5vwDPI+WmyNJb0JLQP2VVZKmk100geTSWwLWGi0FoAEjRTEIxmK1CcCjY1mMz9VWf5D1X7iJR00MdqcQMcOd0blqO6hYDsrlEor5PEr5LKxyEa5VhrSqkC0tmJgWxXnvrmef/8CuZ33Z8wcAZjSNK2/+TUTj6pMOvw5rAuzdqwcHkDYglsqW5r7DRMcghBGBdBV7wAUuU2tQPVoKQCHdiCS4KzLN1fd1SQkcHp3HVLb2/S8ur/+GlnQyhnXpBETo7sA9wVeuOigU8ljIZlDJ5+CWC3AdK+iuMYwCZPmXr3zi0M2bD77ZrxaFMLD7hk+gq28HfWNOdrG8WfjGnkCRFUDUt5VrLaKxTsTifaiUlJfh27Z/P4z9+6Gtu11LAehCRCguC3OViV5K4NDoHKaz9aU6YAEYPgwh0N910ZJvCHClRKlio1CuIJedRTU3D6uYg2tXgu4awyhFCGQ/ecMjY1etO329n+0O7f4ANl12mw8tuYA94UM7LYisAOhUalIIgc6+XaiMKheA8bf3YSOAEdWGVaGlABQGIhQrVsJYXgCe8/zVK/6Y8BExDazvSSEWCceSb6lqo1CuYj4zg3JuBlYxi9dlImeYFsEUcuo33/T/VbZ2Tfq6gb57/XXYfcNHYRg+TIn2lLeUydSPWwEIEjR09mxBZvRHyu06wA6wAKwPKUVEECjA5So5SAm8NjKHmUbFHzsAQ0M8amJ9TwrmCjcCumA5LvKlKrK5LIpzU7AWZuFqHKHJMCroiFRO/s6b/2mgL5Ud9LPdWHIQV7z5PvpqH4DnweKkz40jq6D47pKdG5TbBABpYgeAp0iMK0BLASjgRigOsmEs8fpI4NDIHGZy7PlrdToTUfR3JbUNuJOQnujLV1CYn0Y1OwW7vHoKIoZpFS7rHTn4qRsfvjJm2L5eoWa0A1e85bfQ2U1eUhiABKwxNO810HQQ8wOpvGQbACDRuZ7ELjwPoLboKQCliEiCc9wwLvIdS+DwWBbTTYo/TgKtP92pOPrSzdWBpsKVErliFdmFAgqZMVRzM1rnY2MYlQjI8s/teWrqXdte3Od324YZx543fg4Dm33aamhnALe27BKro9uc46MglY73EGrXgeMpIqezxC4aw2rQUgC6BiKC4By/eOXvyHgWk/PNX4y6XYrMpaxLJ9CVarwGNBWO6yJXrGJ+PofS7DiqC5kw5WZjmKZJRKqnP/eGh9Kb0tNEmXhXRggT267+KIZ2+pRhRlYAexpt7b1ThayuURO4/u84nuyDEIbyMVgA25QaVIyWApCMRQV4YiKHiRrz/DHhRAigvyuJTs0ifR3XxXyhgmw2i1JmDNWF2aC7xDC+s2/dqYO/ev03fF/yPceG3Xdix76fg1DsSVoRa3LxFx8/bstqTQsQKaUWo/FOGJEOONaCUruSl4Drx5DCokhc6zoSp6cWMJJRt7eqZa+xECMEsL47hWRcn9PbcV3M5SvILeRRyozCymU4OTPTdkQNZ/pXrv6mfd36Y74v+Z5jcPu7seemj8Ewfbo5dOYAN4D9vLoNL6omS4J9gMIwkUoPYWFWrQAEsEHnXID6zJAXI2WVQllNzRdQKaq96MOYRLiVMYTAYHdSG/En4e3xm8sVUJoZQyU7xUu9TDsi9w2cOvbRq795WTJSCWzQ7Nv0Nux906cRiar1IK2IrADWFNhVAHWC1LUBFUECS0x0dG/GwuzR5u1eSvSNfVgHYFq1YRXoMUsuQRqwKO5eprNFdA30qDXK17U2GEJgfU8KiZhPyzprUKrayCwUUchMoZQZ4eAOpi1Jx4pnP3HtN7p29o5eHmQ/eofejH03f9afdC8AABeojng/GXWo8gAu0RiJDppI4FgEQ2ABWAeSpuqzS+B5Yf2nB0IAg5qIP9txMZsvIzc/j+LUKTiV2ksLMkyrEDHsubsue7r4jm0HtlLkda2HroHrcMVbPot4ste/Ru3pxcoV1LTZLESSRFsiRrQjQDoYAvAKjfXm0FMAwqiSbGBw1dvkJeDgEQJY39OBpAbib75QwdxCAcWZUVTnJ9f+B4ZpMQwhs+/c+tL4B3Y/szdq2j4qruXpXv9G7Lvlc0ilfcwv7RYAZxbaJh4lhfoz24tNKGpHSqB6GnGibUNCgCbLtAK0FIDSdSyxNGmzCrvsAWw5zgd8BCz+LMfFTLaEhbkZlKZPw7WtQPvDMH5jGE7mlk2vztx12dOXJyLV7qD7AwC9G2/BFW/+DFLpAf8alTZgjYNnB0KkDQhFLrvqacCZRzSutsbwOaTAEIlhBWgpAGGaVRAkWCZZAm7LOzx96O8KPuBjoVRFJltAYeoMqrmZQPvCMH4TM62xd+98fv5dW1+8Imra64Luj4fAuq3vxN43fArJTp+7ZI15yYpZANKhSgBWz3qeWoBsb6gAewDrQ6BCsQLs2Or3DuheV7aVCTrPn+O6mM4VsTA3i8LUKUiLpkwRw2hIZXN6+uD7dj43cM36E1sE5MagO3QOYUSxfteduOz6jyCe7PK3cWtSUbUPZlVU7AOsngHsCzfsESoPoGQPYH04Rg7CUW7WJYjCZAdgMKSTMaSTwYm/smVjer6IhanTqMxNQb+kWwyjHJmKlo7cvPlg/vbtL1zdES3fEHSHlmKYCWzc80HsuuZuROMd/jbuZL2cfww9zQrAJeIPAKLRGIQRhXSVb9/xcfNpfWgpAM2ok3UJAn0oPIACAoYQcLkmsG90JqLo70oE1v5cvozZbA7FseOwKwEkeGUY/6h0J/KH3jh0qPL2LS/v7Unk9wbdoZUwo53YfOWHsWPfXYhEfR4f3Crn+/OVJpbYq8OvE38AYJomorEOVMvzzXXt9SjOPacOLQXgginmO2z1gspxaDbmG4aA67AA9IN41ER/12p1IOlwpcR0toTs7BSKk6c4rx/Tisx3REonL+sbnXvDxsPrruw/fUXUsK8LulNrEU8NYcd1H8emXW+HMHwOCJM2YOmW76/FhWhDeyxdL+DDzqz4jhiNANQiIGo5tBSAIw/dX9pz531VADGVdp0qjQDkZWB/MA0v0XMQ33fVdjA1X8TC1FmUZ8fBS75MOJFlQEwbQo4lo5VCb3yhsrVr0trVOxrd3Ts6tC6ZuxKAdku7q5Huvwa7rvtV9G+6xv/GpeuJP6lb1L9O4xPBgF3vErB0gMpxwM2t+rZoXH2FGMEewIaYh+K1cyoPoCkEdLv8Ww0hgMHuVCBBN6WKhcm5PPLjx2EVlN8d+oEF4DCAQ12x4tiW9FR8Y2fG2dQ1k+iIF/vTkWJHR6zSETOsNCAvhMIJRCCho5uzBAg/MuzWhQtkg+7DSphCpjqiZUMCHQA2A9gSdJ+aRRhRrNt8K3Zd+2Gk+7YG0APppXtxK2h5j5t21BEjIB2gcgxw167zG42p3zoggS4pIUTQ2dCXQWcBmIVqAUiUm800DNR1QjJ109+VDKTKR65YwdTsHApjx+BWy7633yAVYeDpTR1Th27ZehA3DR4aSEarOwG8F4DPYZGMLmg3+zRBLDmIDZf9B2zb+37EkwGtsNkTgCzwElAg1Hg2ywpQOQq4tY3dEQIBCMB8+n+iE8DaCtRndBaAyl0tjkUkAE0eAChJJ2OL6V78ncLm8mXMZGZQGDsWgv1+MtOfzD7zM1temb958083JSLWmwDcGnSvGEY1Hb17seXKX8bGHTfDMAOawuwMYK++nPg6eJpQSA37Ld0KUDlcV+3gaJRmf3mhjB6wAKwdAWRVT/e248B1LBim2vQhnAuQjljExLq0/xG/M7kSZqcnUZw4QVJBRgUCMj/UlTnw/u3PJq5Zf/IqQ7h3BN0nhqHCMGPo3fg2bL/qP6J3cE9wHbHnFgMJ6hz3dXPBhnnaki5W/QDuAlA+inpX5iJEAhAGugEM0xhvHG0FoAtMqz4/HceFdCxAsQCMEJStYwBDCAz2JH1dYZGLkb6zkyMoT52F1G7UBhKR6sjbtrw8896dz++Nm9W3Bt0fhqEm1b0bg9vfg82X34ZEqi+4jjjzgD0VXPsq0W1oq2ucl/C8gMvMvU7O2/PXwLYsqvRBwtYzElhbAWhIOSEJZn7bqsKMqY304SVgGvrSCURN/8S1lBLTuRIyY6dRzoz61m6tbEpnRv/D5T/o3tN3drMQ2Bx0fxiGGsOMo2fDW7Bpz50Y3HSd/yleLsZZ8Cp9hJIQzFH1ClIpX/+x7AxQOdmAMY9INN7Q/62JQHCJa1dBWwEohZigsGtVK1CdIJ6XgNWTTkZ9rfQhpcRktoDZkVOozJGceg0hpJR7+ofn7tj9dN+27slNQfeHYfwi2b0LA1tvw+bLbkMqHXAxBbfgBX1wwIciVHyPLi6RMNYoUB1pyqJBdINhSrUp7VShsQCUE0ISeAAr6uu18hKwWiKmgb60v8mep3JFZM4cQzX3+gzxASGv7D9dveuyp+Ob0tMBrnkxjL9EE/3o2fhWDG1/OwY2XQthBDxNuTnAOndTyAJQH855+Vwvx58924Qt77hSnWuuYAFYF6bEOMXWe6uqPn2YIbgcnEoGu5Pwy6nqLfsWMaOR+NvZM2r/wp5/j2zrniRaj2AY/RBGBOn+6zCw9Z3YuOOtiKd6g+7SovgL67JvqyO9hNCVo96+v2ZtATCInDmSPYD1IYUxAQJBZVk0+WMjpoGqzbkAmyWdjCEe9W+fT2ahjJnhE6hmp31rcyV6Enn7F/b8IHL9+mPaXpcMoxohTHT07UPvxrdgaPtb0dW3PegueThzgH1uXGDPn3Y4OW/Jt440L2shBM3cYxgsAOvCrtoTJoEQsCsl5TYBIMoCsGm8pV//9srOFyqYHj6Bylywd/hCuPKdWw+ID+z+USRmck0Zpl0QSHbvRPf6N2L91regf+jq4Jd7z3GJ+GO0ozoMyBOAqbbKGtUeQOmyAKyL429al9nz4rwFQGkkQKVYVGnuPNGIAWhXnCpcDHT5t/S7UKpi4uypxbq+wbElPSV/ed8TYktXi6SWYJg1EUh27UDX4A0Y2PwmrBu6GtGY4si8ZnAyi/vJ2OunJaVXgNLLQOom5aapPICCPYB1sn+/izvvm4DimpXVShlysTCfSiIcCdwU6WTUK/XmwzbKUtXB+OgwSjPNRYw1gykcvG/Xc3j3jheEIfRMNM0wKhHCQLJ7F9L912LdxhvRv+k6xGKdQXfrUuxJBfvJwkAI5ytZBQpPe94/7wnlTVClGWIPYGOchmIBaNk2XKsCU3HNv0iEI4EbxTAE+jr9Wfqt2i7GxsZRGD+FoDKhbuycwa9c/S1sSvMSE9P6CCOKVM/l6Oq/Bn1D12Pdhn2IJXQrSe0C1jjg0qwQ6YduAYtrCFInAyz8AHDzxN2g+V6E0FNxay0ABXBKAm9TaVNKCbtaUi4A/UxY3Gr0dSZg+OBBdV2J8YlpLIwcRVAD4M2bDuKDe59E1NS9tjDDNEck1o2O3isWhd/V6Ft/JcyIjoHtNlAdA2QFofSMtTrlQ0DxBSxf/1ftOC4l0T5+AS0HfK0FIID4t6NCAAAgAElEQVRTFEar5TLiilceIoYBIUARuNzSRCMGOhP+JHyemlvA/PBhuot8FRKRKj505Xdx04YjvrfNMH4hjAgS6W1Ide9Gz/rr0DuwB939u/QJ7liKW/ISPMPmJM+64ZaBwo+A6pkV3qDe6SJdmrlBAlpG92l6VZ5DnKLw1FQqRaSVWwWipsmRwHWyLu1Prd+5fBlTJw/CtdUnAl+LgdQ8/vP1j2Koo5lEpQyjKwLxjiGkuncj1XMZegb2ondw76U1e+X5t+qDkwXsGXid06ljDKwxIP/U6kvyBBOHlET7sV32ANaNA/eUQXBhVks0qWBiEU4FUw+peATJGH3Ov4rlYPzkYThl4v0jy3DVwCn871d/E6kIh4gzrYMZSSHeuQWJ9Fakureja90udPftRCo9BCFW8cxosUIiveTO0v/xgFkD6QDFnwDl17D2yUIgAF0aAcgewAZwhXnKIFDklRLNhR/lQJC66PUh8MOVwOjwMCoBJHq+bftPcNflP4TQY9ZjmIYRwkA00Y94xxBiqSGk+/ags2cLOns2oyO9CSIs5TCl5ZV1k5rekLWzI9KZAxb+HXBqXSkh+LKIPIAG7wGsnxPXd43ueXG+CqgNoa4U85CQUB2Yw4EgtZNORhHzQTBPTc8iO36CvJ2LEZD4xb0/wNu3HvC1XYZRhWEmEE2sQyzZj1hyPZJdW9HZsw2d3ZvR0b0R0TjFJhpi3AXAmgbg8n4/rXC93H7FA1g+0GMFCHL2kS0BswBsAC8X4BkAl6k0W61YcO0KzIhaD1Qs4l8JszBjCOGL9y9XLGPq1GsAkVt/OaKmjY9e9U1cu/64b20yTKMYZgyRWDfMWBeisR5EEr1Ipbcimd6IZOcAEql1SHQOIBZGwXce16vq4SwE3RFmKda0t9fPmVvywgoC/ZKn1csX16HZIy4lLwE3iDwBCKUC0HFd2KUiTMVlxyKm4EjgGuhKxWASp32xHYnRE0fgVGn2ey5HzLTwa9c/isv7htd+s0YYZgyGmYQZTSEW74YR8Rzuwogq95KrwHGqZNF6zWBbmuWQEwaE8IZ4w4wjluiFEYkjluhDLNGDWHIdovFumNEk4skexBLdiCe6YZj+ROX7gqwuLvlaaO/1Vc2QtlfNo/gy6krvcvHTQr18sa2ycpsAAAkiw82hvQAUEK9J4L2q7ZaLBcTTfWu/sQ4EBCKmAcvmyg4rYQiB7hR9UvSJ8TGU5/0rr9YZK+GeG74GXUu6mdE0oolexJOD6Orfg46e7Uh1bUY82Y9IrAPRaOq88GOYlsCeW/Qs8R25VlSHvfQuTVdcUb/iZts0e0OFgJblZbQXgIA4QpIKplRQbhMA4hGTBeAqdCaj5EmfFwplZIb9W4JNRcraib9ovBexjo3o6NmFnvXXorN7C5Kd65Ho6FdeBpFh1sbHc05WAGvK8/753TazMs48kH/aS/HSLMIEVos2bxDbIloxcpGlMdwc2gtAV+AQRXWWUpEmEtiPwIawIgTQnaKtBOC6EiMnDvuW7y8ZqeDem/QQf7HkIJJdO9DZtxe9G65BV98upNKD4AmQaQ/kotdvHrU5Dfi68AcHKL4ClA4sLsWrgGabglWlWak1wR7AxnCNQxDq9/uUCzQCMB7lQJCV6ExEETFpB92pyUmUfUr5kohU5T03fk1s7Zr0pb3lMCMppHouR+e6fejbcB261+1CMr1h9VxsDNNquEXAzrDXTzfKh728fq7iFTeC/X8AnQcw2sEewIY4+tifzuy5875pAAMq7VbKJbh2Vfm+J44EXpkuYu9fxbIwedqfUmumcOQnrn1MbO+e8KW9pcRSG9DZtw/p/ivRP3QduvsvW7J53499TzzJMgEjLU/4qRYYTHM4s0D+GTXLvcth0GSRsGk8gO4tH0Mev0phujm0F4CLHIZiAeg4LqxyAfFOtQLQEAJR04Dl8D7Ai0nGIuTL4yOnTvqy9CsAfHjfE2LPOv+jfWOp9UgP3ICudVeif+N16Fq3i719TBsivaVe+9xyL9+MaIEzAxSeBaojBMYvOsaCxplQrZLcSOSEptUAQiEAJXBIAG9TbbdUWEC8s1e1WcQiJgvAJVBH/uayC8hN+iPIPnDZM3jjxkO+tHUOM9qBrsE3orPvCgxuvgk9g1foGcyhYZeYFkICcPOeh0nafL7pgpMDCs8BlZOgW324yK4RJ2mnVCBZqdVy+RcIiQAUEocoLvRSPoee9ertxqIGCppWGgqCiGkgGac71aQERk8dhR/Lnm8YOoz37PgxeTvnEMJAR98+dA3eiHUbrsPAphv1Ttei230uC4TWwS0C9izv89MJpwCUXvJq90ofc3MSeACla6NaIfAACtRa2853QiEApXR/SrHMVVqgEeZx3gd4CekkrWCZzcygvEB/jW3tnnJ/ad8Tvq23RuO96Nn4NnQPXI2NO38GsUSPX023DixIw49b8Tx+7rn9WfwlBo49BxSfByonEMhFRrAH0K7SBIZKIJiN4jUQCgFoRJ0D0iEQgIUCpOtAGGoFG0cCX0AIr+4vFa4rMXHqGJn9cyQjVfsT1z4WiRn+lHRM9exB78ZbMLjlLejbcA2XLm0VWJDWjlv29vm5/lXzYdbAznjpXMrHUFfdXtUI9QKwWqERgACIImGaJxQC8PDXvpzZc+d9wwC2qLRr2TacShGRpNo6lxwIcoFUPEpa9m12ahzVMtmFe55fufqbkd4EfS1RIUz0DN2C7vU3YNPu25Hs7Cdvk2G0wi0CdhaQWlbP8hFd1LkEqme90m3VEWhxF2OklJu0KjTju5AYJzGsgFAIwEVegmIBKKVEubCATsUCEAASMRNWiQVgOkHs/Ttzgsz+Od659UV51cBJ8tHYMOPo23wb+ja+AZt3vwtGhDZtDsNog5ReKhcny3v8dEFaQOUoUDywWFJPk+MhooChfltRpUwkAAULwKYRUhyQQt6p2m6xsAAKJ0s8YmIBqrKehxPTEEjEIqC6Y5ydGifL3H6OTZ3TpZ/b83SStBF4CZ3XbX0vBre9Deu33axnhG/o4O9Qe6QFOAve4/ySIh+3QLHGF719J5cEdmjg+QMAg2Y4rpRoYgJc9gA2j2vgAEVJuGKOKBCE9wEiFY+S7V1zpcTk8Gka44uYhmt97Np/S5oElWguaSeSwrpt78em3e/Guo3XkbbVXmgyYZ2HhQ2ARW9fEXAXeH+fLkjHC+govQpYo7X/XxCntNFJYraYz5DYFQYLwKYxhHxJEoznhYV5QLoA1AaZxCImDCHgUnQ6JHQSLv9mM1Oolmmz/9912Q/l+o450jYMM4H+7R/Alj13oGdwL2lbDBMYEoAsAU7eE3/nxTmL4kCxxrxybeVjgGwgd1kQ05tIrdxuE6dTPkdU0tPiIJCmOfzwA2f23Pm5OUAqzdxcrVqwSnlEk10qzQIAYhEDZcvH3EgaETENJGJ0XtDp0TNktgFgIDU/+46tL/VRtiGEib7Nt2LL3jvRM7CHsimGCQbX8hI3uwUvcTMTPE5uUfQd9qKsw4bZsfJrDQtSF4UciQfQ6U2wB1AFElK+DIF3qDZcWsiRCMB41GxbAZgiTPxczOdQIFq6X8T92LX/1mtQ7Dk4j0Dv5lux/apfQs8Ae/6YFkG63rKuW/I8fpfsIWNvX2A4s56Xr3LMS+USZgz1c7VdzcOySMqInr3pk/oGA4RJAEJAviQh3qHabn5hHl2Dm1WbRSJq6lsDhhhKATg9Slvy7Q1Dh8e3pKc2UbbRNXgjtl7xi+gZvIKyGYahR1pesuZzwi/I/HAtTZ0C2pn1SrNVjgOWtrmI68RY3QPYIJUSTSEBCRwnMayIUAlA18BzFE6ZUo5mn5cXAdt+GEIgEaX57I5lYX6GbjAzhZv/xb3fJxV/ifRWbLniQ+jfdCNlMwyjHgkvTYuseImaZdnfEmBtzRqTn6wsCr6TgDXiQ4BNAB5dMw3V+/UBoFSgEYCCBaA6DCGeIwkEKeThOlUYptrcQoYQiEVMVO32GiCT8QhZ9O/c1ARcl87D8K7tP5nuiJZpwswAGJEkNl7+QWzY/jPgJTFGb+Si2Ft8uIs/lwoRTlkUDFIC9rSXpLl61ove9XWfZQARIGbXKu02fh6W8jMN/+9qSAH6RLVNECoBePjhB05ffud9kwJYr9Ku47ioFhaQ6Fqn0iwALyF0uwlAyuXf2ak6UhTUSdS0J96387kdZA0AGNj2Xmy94ueUlx9kmMaQngdP2gAs76e0Fh8Olp9sWfAFhj3rRe5Wz3iir93S6Jir7f9rXJDm5mnmFSHZA6gUATwHQHlC6MJClkYARk3klFvVmyTR0nelmEchT1eO7Wd3/mgyatobqOx39O3Djms+gkhUfRmjxpAA3MVJ38Hr9m5J3ssVbtwLP6XEhePtAHAWj+/SSXOpuGOxFxjSAqxJz7NnjXkJmttN8C3F7CYwKpGdpcnUYvISsFqkED8SUn1FkEJuFus27VRtFok2SwgdjRhktX/npwn3/hnOmVu3v3gNmf1oJ7Zf/Z/Q2bONqok1kIv7ti5a0pPaBqcxgaFb3tJ2EaCuF51rTSyKvnHAngEH1FyMsYYHsDGc6gKKBRLHgpuo4iSFYVWETgDCcZ6HoX4TaH5+1rsjFmptm4aBqGnActrjQqYK/oCUmM8QJeoEcOu2A2cMIcnUWf/WW7F++1vh74TmAE7BS8fhVrC2t4dhGHLcsifunAxgTS/+nOQbsrWI9IAiAKSYn1Juc5HTN/8GtHbZhk4Auo583jSgvHRHpWrBKi0gmlLvYk7ETFil9hCASaLkz9VSHsVCkcS2gJx+/85nricxDiCWHMCOaz4Gg6CA+bLIildb1V36fbHgYxjfcBe8PXvOrPfTnvWCNlyVFYza6Jo2ldaAOE8hR5OnWQAvkxhWSOgE4PHHv5jbc+d9BwFcrdp2PjuHXgIBGI+aWCi1x90dVeqb3BxNlBYA7OkbeTZqOndQ2d921UfR2bOVyvwFpAU4c56HQVvaaMJiWhtZBdycV1njksest5zri0dPpyV74ms7on6PPgDk5mn2/7nAARLDCgmdAAQAAfGshFQuAAu5OfQObVdtliwoQjeiJt3+v1yGzE3v3H3lk0NUxlM9u7Hxsg+AfHB0FwB7Ht6EwCKLaVH8OLXdquelc4teGTunsPj3Yh1jZ8ETflrfaAUBbeUkLwCk3jbWPmGymZGGelRDy+wBpMCV8ikh8AnVdheys6CYQCOGgWjEgGW39jJwnCjgxbGrWMjRxFInzcpTg6nZt5MYB7Dj2o8jGle/cfkCi5vH2z06kGkPVp3/F9PZuJWL0tms9PtiEJRbWhR6Fz3qSWzN91r+YKYBEW3gH1cXjK69gFyWpjSewR5AGgwTT1FkqKiUK3DKBZgJ9XmAU7EIsjZJrUFtiEVoBGApNw+XIgM4gJ/Z+vIEiIbxZHoLBre+nco8ABewZryJjWcihhJpL4qj8kUl3xYjyyUWz0H3QrCRrHpBdXKNMU/ayycvlst4187ZvATnQim6IJZDdVqBBVp3GDD7SMwWsqOQBHOLAOZuvQdnca9y00oJpQA8/PADp/fcdd8ZSCiN2pRSIp+bQzeBAEzGIsgWW1wARtVHaAFAIUtTqg9A9t07nycrxrvj2o/DjCSJrMtF8VdF6476DCluwds64OQWlzXzF3nEFoWeXBR7vlaYWA0+11elVQVpdFCRoUvJzp0lsSuBl4XQ7mi8jlAKQACAK5+GEMrTduSzs+ge3KLaLBIxE0Is5mNtUeJEHsAFolrNqWj5+3HTuovCdjTeg8Htt9HNV/YsgArPh8zySMvbGnA+MGFhidhbCGkNX90GUL4AV0XJ4TK8CGAVtpYcrrnpMwqMLov2y79AmAWgMJ4C5C+rNpufp9kHKCCQiEZQqupyJ60W0xAwCAJAXMdCsZBXbhcA3rL5tSyJYQBbrvwlRGIdNMbPbVBn2htpe/nk7PnFn9OAM+89OEDBJ1iQkhPphTKpcvHhkhZmp4fV2F3ajMCPSQwrJrQC0JR4yiE410ulEtk+wI546wpAqv1/1WIeDk0Sbftd217YSGEYENiw62dBMhhLazHatwUHemZ5pLso8CY9r56duZBfLpRePIaOFhSkEZrl33JhApZFMx8LG0+TGFZMaAXga4/d/9qeO+/LAFCaHEhKidx8Br0bCARgIopMvtySy8DRCM3+v1KexvtnQD7bFSveTGG7Z8P1SHWp30YAAHCy0G+QbyUCFtayelE5sAnAnvI8eyz0mFCiYKyK9jdvYxlyszT7/wCM3v5ZkBlXSWgFILwz64cAlO/hys/NoHeD+qpghmjdZeAIQXk+AFQ1GrG5e/oUgLdS2N6y94MUZhfzk5URuEhhFCE9kVcdAapnAWsYcJbe8PCxZtoYIwEYNGm0pieOktgFwuH9A8ItACEgnpKQygXgwnwGUjoQQv2yZqpFl4GpPIDlIo0AfMOGQyRr1kIY6Nv0NpBM3E6Oxi7jEy5gjXtir3rWE35r7uXUzdvL5x/jI5ENJGalW8bM5Cka2xLPkBgmINwCUMonJcF4VKlaqBayiHeqzz2UikeQodE0gRIxCQSglCgVVdbNPI9709BhkpGlf8vbaBI/S3sx1xoTGqQFWIveveqwJ/h8KQ9GCQtSxkei60nMFnMjZPv/DIMFoC8curHnwJ4X56cBDKi2nZudwQCBAIwYBpKx1vMCRkz1A7FjVWDbJHufTqRjpRspDA9uv32NdzT4PTmFxv+X8QnpBWqUTwDVk57w4717xLAgbVlElKz+79zUMRK7AIo9kXCkgAFCLgCxf78r7vzsdyXEh1Sbnp+ZwMDWy1WbBQB0JqItJQANQ8AQ6gc+q1IhydLeESkPA7hMuWEAvRtugPpJQBKmfdFwwtKwSyvi5IHKcaBy0nu4JB5rJjSwIFVGZBAAzdai6XGi/X8Sz9/0SYTGzR9uAQgAUnwLAsoFYCGfh1VeQDSRVm0aHYkIMnkB19VtsGgMk0D8AUClSrPkuTGdISksnOjYgETnZvWG3SooclNqi26XxdKvvToMlI96D3sqkC4xTG3ofjGtQmyIpAeuNYfZWbLr9vtUhikIvQA0Ib9nE0yMUkrkZ6fRu1G9ABQQ6IhHsFAKzY3CqpgECaABwKrQJLPd0T1OEgDSv/WtoMn9x3v/AkVKoHpmUfQdBmyy0oS10Sb3AUwrUqsgNRaXf9UL2GzmJMnKEgAYBr5NYpiI0AvAg489eHbPnfcdAbBHte356Un0btyp2iwAIJ2MtYwApKgAAgC2TVM7eXN6SvmeUQDoXX8TyAQgkZeVWQHpeqKv9CpQOqTR0q4ItVOHYWoiuh5U8mRq7CCJXQCzmQE8R2WcgtALQAAQwBOSQADmsnNwrDLMaEK1acQjJuJRExUr/JvEyTyAVRoBuL5znqQCSHrdlVA/G7peBDDPsvRIx9vPVzroefq0LKemofrTqUt8mbQGUZoiTdItY3LsBIltAfzg7rsRqgm9JQSgAzxuAPeotutKidzsNHrX01R16ErGMG2VSGz7iUmUBNpxaAJlehI55aOLMEwk0wTnSejThoQAaxwovux5+xyS7aEtjE7qDwBFXrBm0Kw7oUBEgShN/r/83AlUqzRjqgS+Q2KYkJYQgNJynkDUzAFQnoBtfnKYTAB2JCKYzQs4LRIMohqHJgUMEhFL+Xnf2bMDwoipNrsoAHkWUY49AxRfBIqvLJbXY1oDzcZS3QQpoP9wEh0CVSenx14jsQsAhhuu/X8AVYy1zxx//IsVQHyLwnZufh52hWb/j4BAV4pANPgM1fY0x3EpzLqmUC8s0+v2KbcJgD2AKnHLQOEFYOavgckvAAtPsfhjiJGaPTTowjJdugQi7x+khfGRIzS2gZPv+gxo1pYJaQkPIABI4X5dSKG8CKsrJeamxzGwebdq0wC8ZeBssRLqlDCC6G5NSvUC0BDSBqBcdXf27AJNAIhLY7dtkF5+vsLzQPkQJ2Zm2hzd5pkle0hFHIiQxOihmDuNUolsyxWJA4qalhGA0ZjxdbsibRB8ptmJUfRv3kUidAwh0JWMYb4Q3lQfRFsAvfQbijEMl8StmEhvojALhGtPsT64BaD4E8/jZ2cUG2dBzjBqWDLGny/9pn7sp1z+hcQjdMbpaIklYAA4+ND9s4B8isJ2sZBHJT9PYRoA0J2KkaVS8QcqDyDB3aqk6Ww8RVOz8oIHkB81ParDwNxXgYk/BrLfIhB/QPBrZqutnzFMiIkRJNIHAGlh9OyrNLaB7FwGT1IZp6RlPIAexiOAfCeF5dmJEWzc3UthGoYQ6E7FMLcQTi8g1R5ACv0niNarYwn1daPZ+1crrhfBm/8hUB0JujM+o6MIDPPNLBMYRhKI0MyxhewpFAtE5TQl/u3u/aDJWUZMSwlAW4j/FZHy8yDwbM6Mj2L9jsthmnHVpgEA3ak48kULFk3gA7OIIArLM+Np9UpYupwAejWcHJB/Bij8BHDzQfeGOY9uopSvoVAQpdpGA0wOv0JmWwJfIzNOTMssAQPAiUc+PwwhSFyxjutgbnyUwjQAb4jqS6tPOM28DhoBGO1UaO3ckubFv/Pj/MOaAGYfAib+CFj4AYs/Zg2CXqbnZfuaiBElf3ZKGD1Dtv+vnErhm1TGqWkpDyAAQMp/AvAuCtMz42fQv3kHqO4oU/EIkrEISlWaBMgMzZETRhSmmVBvnSAKOtRUh4GFJ73SbDyRMqFFt3NXAw+p2QmYytP4AgAWMsdQIaoqBYnvvvVXsUBjnJ6WE4DxcuSfKwn7QQAqXTIAgFKxiIXZKaT7iDb8AxjoSmJkNh/qtDB6o34J2IwmQTOISiK7YcIFii8BCz8ErHMe+Hb/ThhGJRrMNdEhMtPjhMu/AL5KaZyalloCBoBXvv0nBQH5dSr706OnqUwDAExToK+DZp8hQ4NBtC9Ui4E5KKQL5J8Dxv8EyPwzUB29aAUt6CU8XtJjGKXEaKptSTuP8dFjJLYB2JYEmdbwg5bzAAIABP4WEh+iMJ2dnUExN4tUF020EgCkUzEUKjYvBYcEIaKg80q1mbdLOl7+vtyTXrm2Zd/jb5fWRGjXoaA7wDC1E+kHjBSJ6bnpQ7CJSopKge+8/zOYJjHuEy0pADdke7871jU/KQCStdrJsyew46qbKEyfZ7A7ibG5Aiyb94HpjmGYRJYvDgZpcaQFFJ7zhF/YyrNpp/+061DQHWB0hsj7BwBjp18isw3g7ymN+0HLLQEDwPe/v98WwP9LZX8+M4USYWJoADAMgfXdKZihThDdLhBdRrrN41QUXwQmPg/MPRw+8acjQa+Iv26FPOgO8JK9togoEKWJ/nUqGUxODJPYBpCvRMJZ/eNiWlIAAoAw8OcgzKQ7cYa+7nM0YmCotwOxCJWHiVGCIKuFR2RXB1yg8Cww/t+AzD8BdqhXUpjVCFrvsSDVl+gQ2fiZmThEU03K45E7PgmizNL+0bIC8PDDD5wG8A0q+/Mzkygu0HoBAU8EbuzrQHcqxjmBtUWD3HhhepQPARP3A7P/CthzDX7nDNMgQes9FqQXiG0lMiwxeoZu+VcC/0Rm3Edacg/geSQehMCdVOZHjh/E5dffDOo9LkJ4SaI7E1FkFsooW1wiTC+IKnYIQWM3KMongPlHvHx+Smmh74hpP3RzAvq1h9RMA5EerP0F1H99W6VJzGYmG+pWDWTmZ/AElXE/aVkPIAAceeyB7wH4KZX9Qi6LuUm66iBLiUVNDPV1YENPipeFdYJumaE1sMaBqT8Hpr5EIP6A4D0mvKTHtBB+XSaRTWQe0unRV8mGZQn8a1hr/y6ltT2AAKQUfyGE/DKV/ZGTh9HdvwGG6d9XmYxHsCkeQbnqIFeqolixWIMECtWXH/IoYCcHzD8GFF5Aewkj3T5riM8hpkUxgHiNy791Xk5S2jh94oX6u1RzA+GP/j1HS3sAAcC17X8AQBZaaFermDhLHxCyHImYicHuJDb1daKnI46I2fKHU1N0m/ADRjpA7nvA+B8AhefB30/QBO0RZQ8ps4ToACBoEugvzB5HsUBWH/zU7ffiGSrjftPyHsDjj38xt+eO+74Egf9C1cbU8Cn0rt+EZEp59bmaiEYM9HbG0dsZQ9VyUF58WLYLV0q49bgHGxif2b9A5akLoQew8Dww/3XAoQ+QYsKKbiIwZNdYK0CY+2/8zE/IbAvgX4TQ7gRumJYXgABgJeJ/HK1U7gHQQ2FfShdnDr2Ey2+4BQZZSpDaiEVNxKImGi6rLV/3C7MGUgaRrFuzScuaAOb+FSgfDbonDFMnuo11ml3bqhExIEpSowFONYfRYboxSAq6/MJB0BZrhicf+sMsIL5E2UYpv+BLbkBGPyRc+J9ORROkBWS/CUz8CYs/hlFC0Ev0xEv28e2gkh7TY6/AdcluyF+5/R4cojIeBG3hAQQAx7K/YEbNzwHooGpj8uxxdK8bREe6m6oJhtGHwvPA/KOaLvdqJJIZJtSoFIEGae6/4dMvEtkGJPDPZMYDoi08gABw/PEvTkvIvyBtREqcPvQyHMcibYbRDeoo4CUPEfDDyQLTXwEyf6ep+AOC95pw4APDvI7YRsBIkpguzJ9Ado6sopB0zNZI/nwxbSMAASAG/DFAW76lWsrj5GsH4PKg3z64EiTLvCsJsKAqeEgJZJ8ARn8PKP6UtU1dBC1AWZAyGhDfTmZ6+MRzZLYh8N33fQqn6RoIhrYSgK8++uCkFPIPqdvJz05j9Phh6maYlidAsbf0URkGxv8ImHsYkEtyoAatZVjbNEDQB4kPWtth9gBmH4lpqzKH0eEjJLYBQEj8NZnxAGmbPYDnSJSif1pJ2J8AsJmynZnRU0h192DdwBBlM4wGyFaewKTtpXXJfReQISlBqNvhEEF3IAzwQWt5EnvITE8OvwhJVw1hPlXFI1TGg6StPIAA8Mq3/6QA4P/0o63hQy9jLkO2J4FhaCkfA3n1ZsQAACAASURBVMZ+H8h+OzziT0eCdq6xs60Bgj5ILXbAzB6y1C/StXDq2I9JbC/y9zf/BkqUDQRF2wlAADjy6AP/COAH1O1I6eL0wReQnWUR2NpIBL5Eq3SvnwvMPQJMPgBYU2jbSatVCVrP8KlSJ0EfIAUHLbGr/v+pkbmpw6iU6bb2u0Zr5f67mLZbAj6HlPK3hRDPgloES4lTr72EnVffhK5umv0PTMDIc3kAVXNOlPlI5Tgw/beA3exNi24zOy/paQufKiGkjoNmdALRofr+pw5OHnmKxC4ACOAn7/k06EqLBExbegAB4OhjDz4vIHzZ2CkdG6d++gJy8xk/mmNaBj89fxLIPg5M3K9A/OlI0B4TdnuFhqBPjVY7VZL7QKWqc5njmJ8dJ7ENAC7wN2TGNaBtBSAAxMrm5wD4Ur7DdWycfPnHmBw940dzjI8EUwpOIdVhb6/f3MOAtIPuTZsQtKpoNZXRwgR9ajRzqkQGyPb+AcCJQ98nsw1gthJlAdiyeAEhxicA+DKDS0iMHT+IkROvgQfdFkODrXt1PyC9CN/x/weojlJ8K0xoCFpVsCANDTUfRgNIXkXWjUJ2BJnps2T2JfAPd3ySNm9w0LS1AASAI49+/klAfsXPNqdHTuPkwZdg2dW138woRiifXaQMohZwkw973lvunX8UHOHL6EfQApQFadPEdwBmmsz86WM/JLMNT75+mbIBHWjbIJCLicSt37Yr8fcAcodfbWZnJpDPzmHrnqvRs27Ar2YZEqgmCKIgkPxzQOYfALclMxswDAG6iUDNI1UivUDyCjLzxYVpjA+/RmYfwLduuxdHKRvQgbb3AALAwYf+LC8M+TH4tBR8Dseq4NSrL+DM4VdgWxU/m2ZUIiUC9+jV8pBVYPqvvTq+bhHsQWGYsBK0R3SV69tIAKkbAUEnL46/9l0y2wAAiQdoG9ADFoCLHH74ge9D4g+CaHt2chQHn/t3jJ8+Adfh5bjwEQKBUx32avjmnwmoA0FPUCxIGYaOxevK7AbSPwOYSVBdu7m5YUyNkXr/jtx2L75N2YAusAC8iCM39vxXCfH1INp2HRsTZ47i4HPfx8zoabgOR2Myisg9AYz934BFly4hfAQtQFmQMi1GfCeQvgUw4mRNSAmcOPQkmX0AEMCfCdEeFyULwIvZv991LfvDkDgUVBdsq4rh44fw0x89ieFjB1FcyAbVFaZWdF0CdovA5JeAzD8B0iL9CphmCVqAsiBlGsTsAjpvAVJXAcIkbWo+cxqZyeOUTUyXovgrygZ0goNAlnD88S/mrvjAZ+5yhfkcIHuD6ofr2JgZO4uZsbPo7OpGz8AQunr6EO/oAoTmG4DbDEk2YTYYBCIAVM4CU18GrEnVnWLaAt1EII952mF2AYnLgdhGX5pzXYmjr36HthGJB1s99cvFsABchkNf/8KxvXd87kNS4N8A0N7S1EA+l0U+53kCo9EYOnv70dXTh0RnFxKpDhgmH8YgkVKzyXL+O8DsP0OrpM48fzNNodk11q4ntIgB0Q1AfJsX6esjY2cOYGFuhMy+AOaqEl8ka0BDWDmswOHH7v/2njvu+y0I3B90Xy7GsqqYmxrD3NTY+eci8QQSqU7E4ylE4zGYZgTCjMCMRGAaOqzy1zF4X/RWxw7JsuX5JWDFCFGft9etANN/s0KgR8ATVr3zd6QfMDtIugIg8K+D0RwpASwTkCflKtspHGDZqkDuyjdjK96k2SvYWgmqE9oAzE7veoyu934GsAJVLhZwnNj7JwX+7P2fQY60Ec1gAbgKRx574IE9d96XBvB7QfdlNexKGflKGfmgO9K2aOCdsKaByS8AlTMrvEGDPl7CGpNIfBsQ2+xPV3SABSlTC6sKUHtRuL7un1YRoCvZEoCR9B6E6VxqQQI4dvA7sO0CZTN5IfVy9vgBC8A1OPLoA7+/5677uiDxW0H3hdEVIg9grXsACz8Bpv5HyBI7ryVI/Q5GCJmHlBIWo/oihLcMuywrPR9uZqdOY3LkAHUzf3/bvchQN6IbOqwPas+RRx74bUjxhaD7wegKdRDISg8JZP4FmHgwZOJPR4KOutUoCjfoj67RV8EES7VSxaEDXwfxiVAxgD+kbEBXWADWyJHH7r8PkH8RdD+Y5miZ+cStABNfBOYfQwt9KuY8QasujVRY0B9do6+inZCuxKED30C5ME3ajgAeeNe9WGnvTEvDArB25JFHH/w0gD8KuiOMXlyIAvYpv581CYz8F6DwvB8fj2EQvOrSSIUF/dE1+zqoGDn9EqbHyJd+M6aF/07diK6wAKwPeeTRB34HwK8CqAbdGUYfaMbgZcRf+RAw+ruANUHSIsOEg6AVl2YKLOiPr/jryGencOzVf2ve0FoI/Mk7P4d5+ob0hAVgAxx59IH/6ULeDmAm6L4wOrA44lE7//I/Asb+EHAWoMUozTDMIkErLs2u7Sa6Xq2U8cqPH4LrkKcBG+2o4EHqRnSGBWCDHHv0wX+XjniTBA4G3RcmYKgTQUsJzPydl+ZFqnQ8Bz1JaTZpMUzLEPS13Ni17TgWXnn2H1DMTzX6wWtGAvtv/g20dfQcC8AmOPqN+0+6lnMzBB4Oui+MDlDU8y0D438MzD/u70cJBBaEDNOarC0Spevg0ItfxfzssB8dOjA/iL/xoyGdYQHYJMcf/2LuyCMP/LyQ+AyAStD9YYJAgkT8OTlgdD9QfMnPD8MwDOM7J177JiZGD/nRlOsCv3b33cuVemkvWACqQR5+7IEvugbeDOCnQXeGaQHsOW/Zd8XKHgzDMOFHSonjrz6K08d/7FeTX37PvXjOr8Z0hgWgQo49/MCBIzf0XCcgPgkgG3R/GH+QqvcAVoeBua8uBnswDMO0JhIuThx8DKePv+hXk5MVA7/rV2O6wwJQNfv3u4cfvf8rESmvEZBfC7o7jB8oFICVE0D2caxcJJ5hGCb8SNfFkZd9FX+QEr/1gU9jzrcGNYcFIBEHH3vw7OFHH/x5wLhVQPImrragyT1/xQPA/HcA17kQWSwlzYOjcBmGCQirkseBH/0NRk75NzUK4Hu334t/9K3BEMACkJgjj37+ycM39N4EyLsBvBJ0fxgimtVPheeBhR8pMFQjy2pAIrHJgpRhmEUW5kfx3A++gsy0L9G+58g5Eh8XggeWi4kE3YG2YP9+9wjwEIB/vfyO++6CwKcFcBs81w/TCgjhPepFukDue0DpyHJGm+5WaFg6LJ8TpEGx7FffRseDYRTjui5GTr+IY69+E9L1d4uLEPj0e+7FKV8bDQEsAP1FHn3sgYcBPLznzs/ukULcIyQ+AqAn6I4xzdKAWHGrXn6/6oj67jDNsezhZEHKMI2QnRvH4Ve+joW5Ud/bFgL/cNs9vPS7HCwAA+LIow8eAfCZ7e/Y/38k0nM/K4X4CID3AYgF3DXGD9wqMP8NoDoWdE+YMMCClAkhxWIBZ449i7HTz0DKQNLunaw6uCeIhsMAC8CAOf39/WUAXwXw1X0f/FyfXZHvA8R7JeTtAlgfdP+YWqljMnaKwNwjgD27xht5QmU0hQUpswJSSuSyMxg59Rwmhl+GdMlr+q6EDQMffv+9yAXVAd1hAagRBx+6fxbAPy4+xN67PvMWKY23ArhZAm9mQdgCOPlF8bdcJgKesBimIViQBoqUQLlcxtzMGYyeOYBc5mhQHr/zCOB3bvs0ng20E5rDAlBf5OFHvvAMgGfOPbH75399c8Qx9kmJawBjj4Dc5gLbBbAVvHQcLLUELNhZT/w5K92QLmcjyKC11p2wGIaUFhekUrqoVG2U8nPIzo1gevI48nNn4NjFhm0qReIvb/t1fD7obugOC8AQcfx/fXEEwAiAb13ywv79xuUvZIdc0+6OOGa3K9AjBIYEBB/fJbx/57OfAnCd7w3b84viL0zVPYLOmLC0/eYF6dmjj6NSLtT03kjEXLtFYUIIc01bRi22vHeuac8wDRg1R5wLCCO6si1hQNSZDEwIxfeaRgQqM5IJYQA1HJPaMRb7qA7V36F3jNXfsEkpYdtVWNUirEoJ5XIOxcIcCguzqJam9RF8FyPx7d4Y7/urBRYIrcD+/e5RYBTeg1mFL30JH5B+C0BrBph7FHDrHCwbSSvT0jQvSMdHj2Mht9beS4ZhQonEq4jh7ps+icA2HoYJTgTNtBWSyK0lVzJrZYD5BsQfAF6CZRiGqZlhJ4Z33/5JZIPuSFhgDyDDUGFNe8u+bjnonjAMw7Qys1Lgzvd+EuNBdyRMsABk2g2ajW1LrVYngflHvHx/DcMeQIZhmDXISon3vPteHAi6I2GDBSDDKGNRBVanFIg/hmEYZg1yAnjf7b+OF4LuSBhhAci0F2Ll7XrNsWjUUi3+go7EXQp7JRmG0YJJKfDe2+9hz1+jsABkGBVIeJ6/uUcAqUr86Si2/BKkuglfhmF0QQCnXQfvfvdncSzovoQZFoAMowJnEsh+S6H4WyQoHaSj9mQYpu2RwDNOFL/43ns54KNZOA0M01YIogVgZL6mXvwFqcKkBg+GYZiLEfiL+Rm8k6N91cAeQIZRgSwD6Ay6FwzDMK1ICQKfvf0e/GXQHWklWAAybYWUkBSONXZYMQzDqEcALxvAh2+9BweD7kurwUvADKMCSbEGKpZ5jmEYpi1wJPD5qos33Xoviz8K2APItBeCSkW1a3QsR4swDKMWAXwPwKduvxdHg+5LK8MCkGGUoJsw8wuqz92ox5MFKcOEmBkh8LuzA/gfd98NJ+jOtDosAJm2QgKSRCJQ6CDBYqZ+1joQ7SrUGUZrqpD4csXE73/g05gLujPtAgtAhmEYhmGCoADgL12Bz7/nXgwH3Zl2gwUgwyiBxAVIYJNhGCZwhgF8RQB/ftu9yATdmXaFBSDTVhgCUoZmFZAFIMMwLUMBwDcF8Lezg3ic9/gFDwtAhlGBdKHeC1hLIASLRIZhtKUoBL7hunioEsM37vgkikF3iLkAC0CmrZBUpeACWwLWzZ3JgpRh2pgqBJ4D8F1X4knHxXPv/wwqQXeKWR4WgAyjLWEUU6oEqarE12H8DhlGe+YhcEpInJbAcSHxE0PgVTGDI+/cDzvozjG1wQKQaS8EyHyAjI5cerB3X34TbKscUF9aG9eVcF1XjS0A0lVzobquC2eVjb/SkThz6gCkaylp74JhPCsE/kat0QCQcFyBcdPFDAxM2iXMvOe3UQi6W0zzsABkGFUoF5bigk12ZClh3aY3Bd0FzeATy3ZcDJ89BEe1ABQ4dtu9+IpaowyjDhaATFshJVEiaGq3oo5eS9YOLYBuJxafVAzjFywAGUYF4cktow7qj1yvfdYOLUAQ11EbXrsMAxaADKMIqihgVkE1o9s83saHIlQQnTdC8BnA6A0LQKZd8AZjCZKJWZ/s0rr04xxtPAfqdCja+DAwDLM8LACZVkSs8TMkhKy7y6KTCmpjdDsMrXBqM0zIYQHItAJrCb7zP4kcgCCZYXmSZFoVnQSpTn1hGB9hAciEEYE6RN/FP6UE0c4cnkUYhmGY8MACkNGdWoRdzSLQdQHTIOglif5jFyDDMAxDAwtARjeaFXprewBJcMFZmxkmjNB47xfHmnO3m3LJT4YJHBaAjA6sJNyUeP2WeY4YlWM818NlmDDiegLQxKWFrS/+yWKQCRQWgEwQNCLuVInBNkS3eaZNDwPTVlzkAVxO9K32HMP4AgtAxg8aEXeNCr5VxZ8rQbEDEHSJoFuRWr4rPx0krfo9M0GyggA897PW5xiGDBaADBW1CDu/vH8Xfpc0gyqP1GFGt6PHgrSFWG4PYCNCULeTlGkBWAAyqmhW7PkiBl2yIBCq8VkQ2mb0RLfjzYK0EWTtewDrfV23E4QJKSwAmWZQIfaaEX51i0FtKrbVDAtAJmh0O//CIUhr2AOoUhQyTN2wAGTqpV5R55cXsCYxSJYGRro0w3A9NsMxLzJMk4RD70jUvAewWU8gi0GmIVgAMrWgSvQFLgbdFT5g01C5FkUdtmvugk9KkQUp08YskwdQtdBjMcg0BQtAZiVqFXEqln4phd/SJWCWJX7NC80IUoqdTnzkGR9ZQwAu9xyLQcZXWAAyF9Os6FPt+VMvBqmGQR5em2C5L4/gC9XtGLEgbWlWqQSiavmXxSDTFCwAGaB+YRfaJWE6DyDVmMoqoWXRbRrmU00pq0QBU3gC63mfWPIa06awAGxfVIk8HcXgcq8DpAKQUUp1BHByQfeCWZYAL6HYRiDSG1z79VNrFLCfAnC19zFtBAvA9qIe8aaLAGzWC3jJ63QrwFThJW2qV6vjAMaD7gWjG0YHYIZDANaZBoZSAC7n9VvrNaYNYAHYHtQi3BoVeUEJwGa8hETUOm7W0402FYAM4xs0ekeCXACuJuyWvq/W13iJuI1gAdi6NCPighKD9Yi6hsQgXSLoejyA9XTCj3GYRSbDqMYHD6Aqr99af+Oin0wLwQKw9WhE4PkhDlX+Dxp9r+uej8oLB0L4MPTqNrazIGXCTw15AP30+tUq8tgr2EawAGwdGhV7QXsDm/Uaop73kiWCZhSi2xzDgpRpGAoBuNprqkReLX8zIYcFYPgRWFlM+f13ra818r5Gf1/6HA1ka8ssPoJHt7mOz4kwoNADWM9y7mr2GxF5a/2t28XB1AELwHCynIgKWvw1KvKoBeClYpBouJI8DjK+odu5xoJ0OSSUCsBaX6MQect5/pZ7TrcTk1kDFoDholbh14h4UynwGhV55GKQ8wAyjGr8nPdrcTppdYk3KgDr8foFJfqWew+W/M5oDAvAcNCMaKMQfyrFYa2vKfmdTgC6aG7cW6lbWk1mDBMC9NAfKywBrybslr5vtf9bSyCu9XcjIrAebyCW/M5oCAtAvalHsOkqBhsVfLWKu7pEINlWvaajS1brWBDjKAtPhmmGVQQgVvi9WZG3loBDDe+pVeCxEGwBWADqyUrCrNXEYBACkEjZEI1xS4fSZqjrk+s2ZrMgDYT4VqDzLUByLxDf5pViMzoAIw5IF3AXAHsWqJwFKqeA/PNA4QAgraB7HjhL8gCuJuRUiry1/vZD9LEQDAksAPWiHoFHLQb9Fn+Nirz6BCCIILOsUPjoNvyyINWT+Fag9y6g9w7v91XpAWJbgNS1F55yy0D2u8DcY8DCU4B0SLurK0JcIgAB/0ReLaLMD9HHQlBzWADqQzMCrxlR16hAbPZ/6rW30v/W9T4OAtEI3aaBdhekySuB9b8G9NwGNJMv3UgAvT/rPSpngam/Ama/1nZewVUqgVCIvLX+Dlr0iSXP6XYBtSUsAINHtcDTQQyqFHjNvPd1v7tUww6ZA5D1qm/oNiX5JUijG4At+4GudzZuYyXiW4Etvwes/wQw8t+A3PfVt6E35wTgWiINS16j8vz59Vyt79XtqmsrWAAGhx+irxXEYKOCb/nXwrYHkKq7jP74MTWm3wps/2Mg0kfbTmwLsPMvgJl/BEb/OyCrDRpqVDP4fx1Jr9GLBSDweuFTr9dOlehbSYhRiL6lz6OG5xkfYAHoP6pEHKVwbPS5Rt6j8u9aXiOBE0EzoWPDp4GhX0dTy7310v9hIHUNcPJTgDXtX7sBXJ9LloAbFXSUog91/O9Kz6l8Hsv8zRDCAtBfahVlLAaJxKCkEoFk+WUAPcZEMu3M+I2IAFv/AOi7M5j2U1cDe74GnPg4UDocTB/849z406yga+Q9KkTf0udX+/9Gnl/Ovg4DXlvAAtAfmhF8LAYV/h2+IBBduqvbmKzL9xI2BLDl/wpO/J0jOgDs+ivg6N1AdSzYvhCxShqYRj1/qOH/lnsPVnm+GSEHRc/X+j+MYlgA0qNK7DUi+FSIPh3EYL2Cb8XX6IJAeKzyF92+75AI0qF7gXW/GHQvPM6LwA8BTi7o3ihncbWh1iCQepZegxR9qr19a72m24XeUrAApKMWceanGKR8XuVzjbynnr+J4HGqvdHt+C9zqnffBmy41/+urEZiF7D9T4ET/xn6fYdKWGsPIJZ5bunfYRB9S19bCsVrTJOwAKTh/2/vzIPkuO77/u2ZnZmdvYHdBRcXAeIiCAq8JIgi6ZIU65asWBVXIquSUhJXxXGUSkVRSrGr4thJlFQOx7IqLh8qy7Jk2RIlhjIlShQvUaTECyQO4iSAxbEL7H3M7uzOzj09+WN2gcVgpvu91+/1ez39+1Rtdff7/d6xi57XH3RPd/PKnAoR1CF9xstg1fMr2wgiCNQdL2ODwO1f0jMUN3reCwx8Gph7VPdIpLJ6CXjtR9VZvUZlsqWvWZ88dWSIH0mgZEgA5eJV9PwWwdDJYPVGuWQUzU30HEBCBtt+X/2jXryw9T8A6Z8BpSmXxMA5wPoHQcuSPhFB9Fqu4myf6Bm/wO0EpkICKA+ZoqdDFHWUi5aJ5GDdUgE21M1La8cKghCg+yGg78O6R+FMpBPY8u+B0S9q6FzR55btMTBoUtasnCdXpLw+Vo+KGEt8fQ5c8ghGSADloEv0VIhg0GSQR/4CeBfwGqbNdwH9M4aRzV/QPQI2Nv59YPqrQP6i7pHIZG0OMkH66mPNylVfyuWJO+WYNikGDhJAb7AImqwcL3E/YzzlXnNZym7aVnWzblXZXcCmipZpc6+pfyfNdN4PdN6rexSMWMDgZ4Frv6d7IFJY/bqJ0yVgOJTrkLt6vMqb5RBjibPkmDYRBQoSQHFkC15QRVFWHa+5LGVQegaQdyoiZ5GIaccBQ/5xB35d9wj42PirtVfF2VndI/FMkzeBrMEieOAs9+NSrh9x1hyePKIBJIBiqBQ8GZKnQwRFJFFGOVeZreidbdVqRaASS1Lc36nNEG8JPgYcjyJJoPdDukfBRyQJ9L4fWHiqSUJUfp/VKqDg8QDV2lyz/hPFIn2mXsqVEV+f4wRLTqM8Az50wYIEkB/VcueX5OkQQe0yWC5DwNTcsSslFc0CbX0Md0ZKxLQplIRUnK4HgWiX7lHw0/uB5gIYaZfenV0V/A+cC+UyivB2BtC0S7l+iB2r/DXDtBnMaEgA+ZAhdn5LoAxR9BJvFpNZp1F5w7JyBWUowK4UVTQLtPWqaTcomDSdB01Gux/SPQIxro+7wT9+tLtxuQeqVVuNANoo4da9pplMiQqcSvFbn+MWVy12PO2ZNGsYDQkgO7KkTkWuXzle4iIx3jqu7RRLagSwXMyraBaI9qL53E74immHFbddoOMeX4YhnbYBIL751ncER3uUnAEsl0uo2vKnhWL5ugCulyQZZ/vq4zwxljhvjhuy81gw7dNqJCSAbOiQOt5cmXluOV7ismNc5dkClJhasaRKALsBKwrccobCtPmNhNR33HaB9j2+DEMJiV23CmBip5KuSoUVJe3m8sjh5ruA1xCVNy9SWJ/jhKwcldR/v7JZDuEACaA7soUuKLIoI8dLXCTmWr6whAwUkM8paRaAVXuDQ2lWUfuyMG2uDbmQRrtr3x8NKvHtdefK4jUB5NnNGHeBQn6Zo1F20hmk60YhKn7r481gjZt0qbYeFqnjzTdtYjIKEkBnVMifCQLopwTqEMGmsdlFKJntM5kUam8DichvvG0gAAJoGqbN+z4LabTH3/5kUy+vHQdqEsgD4y6wkknxtcvI7AIW0PwmkDVYxU/1DRoq8vyAJNADJIDNYZEaljyvwqgq3+881r+p0tjErJozgCvZAlDJqDnwxjcDubflt0v4iM/HoGiHv/3JJtJ5Yz02CLTvVtbV8pKa/1yNzdxyBnA9fomdbqlTcVavUR241CMJbAAJYGNUiR9vPVPyZeax/H1VxXHyIlLVKmzLknuqLpMtolpOw1IhgG39QKSjJR6OS/gF7zHUUCJJoOvdUPX72HYVSwsT7okCnL6Medw6cL/FTgWqpY5F6ETqkQTWoeB6VeBxkrdmcVXCyFtHVfsRiXluORGXHC/xyEoOdjaPBUimWq0qu5QEAEjsUNc20XpU1NzY4Bt2BrBiQPfDNQlURDaXRzE/L73dfBGpsWnkwD5vsebIno/9+oFgHS/1GtUl1kECeDPNdhKZO6CKnV60L10/rJOcEhFML2MOClhMjeHmr/tI/EnuBaz6rxPV/xDEKhU1Nzb4hp0Det8HtG1Q2k16YUzJMwAXlzEO/vlO1twp8gOBfD/qrK/ntS6alIUWEsDGyNjJ/NjBvfSnKl/2RCb9jOHMImaggLmZUUDNi0YAKw4k97skKZJP4R9CG5U0UF7UPQpx2vqAqPq7mKenzitpd24RY2Cf50ySOtV9rNWBhLoy6ocaEsAb6NwJRev7UU9lvpZLy1cmMNbg38AzqfQy7ILCu3WT+1cfDB0UdAtoyIW0cEX3CMSpqP++a65QwOLcJSVtX5nEKMy6BKv6GCFSr76un/UJkACuwbuT+L2Ty/qQidTzewJq9iPrf9KR4+fUCKBtV7EwN6Ki6VUiQPeDgEX3bomhW0B9FtKV4+r7UEFlCShL/5ruLcxNX4Jdzilp+6U3cRFq5kEI5PPWkVHPlPpO7YQeEkBnVO58vO14acPPD7/KfJYfVwk8fBZz5YqaN4JMjKu5pHSdaO/qu1Lpoxt8FAvm8qs+/i4Syas5K7ceu1rF+OhbStrO5jB74hIWYda8CY/1TKkvu51QQ0cRuTuSSTu3lzb8qsc7RtYfRwm0bWBiBiNN/m6emJmdRimn5CuGN4gNAV2HQB9fwpHlw7WbKYJG7gJUnyFNzU8ik76qpO2JeVyA2PwrMu96PVbori+7Hd62Qk3YjyAiO4SuHdWpPZ1t+FlP5O/V8OfsCC42+Tt4olqtYmrspIqmbyZxO9D1IFCNtNRVS0IidhZYfFb3KPioFoHs6bUNJT/Vqo2Ri68p+xVOXMDaL+DH3FiP12OBrOObrHZkt9WozdASdgFshOydzcT2/G5DRt+8dRxzXj0BZdeZrlw+CbtcgHIbS2wFeh4BrFiTHAX4KZskpN5JPaF7BHxkTwPVktIu5ufGsTg3MLY+aQAAIABJREFUrKRt20bp8RdwBuJzl6z5UlZ92e3Ibktlmy1PmAVQ1s6he0f248OmcxISqeua99ppzKxk5T8QGgCKpRJmJs+oaPpW4rcBfR9q8rw03XZGQqqdpZ8DK8d0j4KNqg2kf6q0C9u2Mfz2C8ran5rH+dlFFCF3PpNZX6QNP44xfrTp1HYoCbMAOuHnjiejbdM+zF4nGF/qvj0CZS/YvXj+VdgVtWcyrhPtAHp/GWjf409/wui2s5AK6dRX1fyussmdAkry38qxnmsjR7GyNKms/ePncRx886WO+dYNFccpVcc+1W23NGEVQJk7RhB3bJntymrLSztCdV88BmWn6fL5FYyPvKGq+VuxIkDX/TURjHb712+g0W1nPgnp4vPKz6x5xs4DqR8p7SKbmcOlt19S1n65gsLfPO0qgCzzoex5X8VxRLV0qWy7WR+hI6wC2AwdO53MflS1LbNdWW15accCYD33BsZW8lhyGa8wFy+8gUI+o6r5xsT6gb4PAu27EdI5LcAolMtr/712U4ippF9Q+vo6u1LBmRNPwVbw2rc1Lo3h2NwiCg1CJHTq2xfpJ/SEUQBl/eP7taMF8UMps11Zbd2Sa9vAWxeg5mFgACqVEi6d/4Wq5ptjtQFdD9S+Gxgb9L9/wjwKI8DIb+seRWOyZ2vfVVR4hvTKxZeRXlB36RcAnnkdr8McoeNtV4RWOAaGmjAK4Bp+7lCt8kExYaKSKoyPPY/jUHb9DZi4dgqzU+ofbNuQtl6g9/21B0dHu/SMgTCHhR8Dc9/VPYqbKS8Aqe+D7SModvZzbuoMrgy/rmDwN0gt4dqTv8Dl1c0gzJMy+vCC31JHAtmAMAsgK37vNH7tqH58AFX1IW0iPHMZi6NT1yduJZw98TTyeY2X3xLbgL6P1B4eHe3UNw5CP6P/EUg9qXsUNcppYOrPlV76zS6N49Sxnyhrf40XjuBnCL7Q+XlckQmJnSBR3QPwGWvdUsePrr797NevvqT1Y0WQffcB3ANF2HYJKyuLGNpyJyzLcq+gAssC2vpq3w2MdgCVNFAt6hnLjUFp7j+MVGs3hCT36b1rvLIEzHwdKM8p66KUX8SRV7+LUlntfr6SR+p3/xTfrdiowr+d2u8Pj44PK00QigmjAJoiMKb1r6Nfv/p07Of8CBY//jD2d7RD2XXS3Mo8rGgHNmzcrKoLNiyr9szA9r1AWw9gZ2p3YBK4sau0Ojaw+HTtlYIdd/vffWkOmP4LoDyrrItyIY1jh7+HbFb9TVgvvIkf/+ItyHivnI4dUNdOr/vDprt/IyABNFdaqH8f++zqQPGePdgPhSzOj6C9awjd3Y0e2uwzllX7jmD7bqBtI2AXzL5LNJRY7inCVIH080BhFOj5JSASV9jXOjJHgdlv1v7joYhyIY2jr38Hy8tpZX2skcli7nf+BI+WK7Ad0lT+Qzqhq1/dfa9hwhiMhgQwYKISgDHo7F+47zOXMfcrj+BAewIdUEYVc9PD6Ou/A8mkQTdlRLuB9p1A+y7ASgD2ClS/joswhNw5YP4xoG0A6NiPGx8jyRSngbm/BZZfBqDuUSyl/AKOvvYdZDLqvle4nu+/iMffOAO1txc3RtE/VGD6X8OUcQQSEkDDxaQFx6F7DA37t20gHkP2vn24Cyqp2pidvoKB2+5EPJ5Q2hU3Vqz22Jj2PauvlrOBygoU3iRNmICdBRafATJHav8RiEv8moK9Aiw+B6QeB8pq3/JRzM3h2OuPIbPij/zNLeDqf/oqflitKvmAWO4pvkDjaGFIAA0TkZCPRes4zlzG/Effg72dSXXfBQQAu1LA7PRF9G/aa54EAqhdHu4BErcDyTtrN4+QDLY+5ZmaBBangWh77aHilsgholq7tLz0M2DuMaBwGXC8Quqd/PIIjr72GFZy/nyNwa7C/r/fxV9dHvf0IHnLPcU3aCwhJEwCaJRsGD4ek8bi23iqVVi5AhYfOoiDUEylnMfM1CVsHNiNhBcJtNxTPDVgRWrfFUzcXvuJdgCoAHbOa8eECVgxILG9djNI1wNAfEvtjGD2DLD0MpC/XHtMS7W4+ilpB+rvZLczQHESyA/X6qR+ACy/AhTHoPJy7xpLc+dx5I0folD072sLR8/j5197Akc4qnj+pErEpLEANB5thOYXBclOK41J6Xj++Iv41f07FF8KXiXe3ov73v2P0NPd50d38rDzQHG89lOaBdZesWU5V3PHcwOEG5GO2mXe+FYgtgmwOB8Ha8UAtAGoAlWNd5BXq5geexOnT76EatW/M9OZHFK/8V/xhwvLKMD5tSW6Xy5N4/E2ppYnzGcATRYcE8dk2niUjWl4FJMffg/ujUbVfz4q5QKmJy6gq3c7OjoMujHEDautdvdwYkftMnFsAIgkALsE2LqfL7gOyz1FcQP6sdqA+FDtu51d9wOdB2tn+qJduOVsHhM2gPLqjx6qlQIunXkKF87znIST0/VX/w5/fWIYzR5gaNoOY9p4APPGZNp4fIMEMGRy00LjUTam1DKKnUlk796FvfAB2y5ievJtRON96O3t1/ewaFGsSO1O4vhmILkXSOysfYfQigLVwo2zg8SNvVZpA5Ha9/fa7wA6DgKd9wPtO2plEQO/c8pJLjOD429+D9PTY773ffgMXvyzx/Gm7x0ThAJIAJ1juqTGxDHpHoOvf6Nj5zDznndgsL8X/fCDqo3UzDAKpSo29G9DJGK51zGVSHz17OB2ILm/tmzrBaxY7btkVX1njloSq612KTexE+g4AHQ+UHukT2ywdrkXDvuS593Mv/20CmDq2lt468gPkPfpZo/1zC9i/AtfcX3mn2mXD00bD2DmeEwbky+06R6ARtb+wU050po6HkD/mOo/nL6M50t/iWf/7HewpUvxXcE3qGJi5DVkM3O4+56PIJlM+tOtaqI9tZ/23bXtSqb2NojyfG1ZWUJI518xIp1AbCPQ1l+TvLY+CH8kPP/ZJf+7Nfk1ivk03j71DGanR+X2x0ixjPz//Ba+nS8y39Vi2nfJaDzumDYe5YTpDGA9ppzFMmE8Jv19TBgLACCTQ3k5i9mHDuKAw9ikk8+mMDl+DsnOQXR29Wm3b+lE4jVpiW8BkntWv0M4uPqdtLbaGUI6S1gjklg9u7ejdja1877aWb7E9tVLukno//+ZOqpVG7Pjx3D8jR9geTmlbRjf+BG+/fwbwq97c7rpQAemjGMNk8YCmDMO5YT5DKCfNNqhdMzazXZsv8fi9AHzYyxuH/DrY3jqFYw+eDeOPHwPDike002Ui0s4dfQxbNnxLuy98xHEYn59VDXslms3KcSHbpTZeaC8CFQWa8vyYu3MoeLnyWnDita+RxntrZ0tbeupPYw7ovDFNIaTzczg3KlnkEpNaR3Hi0fx/KPP4pyCpk0RQ1PG0WwshCJa97+OjfHjzJHOM3mmjENn/9L7TsTQ9rXfxWeG+rHOUPwj2bkJd937UWzcsElH95qx1q2vPoy6slR7Nl1lGSina2JYNejO42ZY0drl22hnTeyineukrxM3/67hpVJaxuilV3Hl0imoeckGO2cu483Pfxnfh1mPMdHZd1jGEArCNuMYKRgBG4Ouvv3u96b+dm1F9x9+Hv+4K4luaMCyIti87T7svvMRJBLBv5NTOtVK7bVjlVztIdX2yuoyX5NDu3hj6eksotW4ONK++pO8sW6tbkc7asIXaffQb+tTreQxNfYmLpw/glJJ/1cARiZx7l//L/xNsYwKzJQUE/vV3besMYSCJrNZy2KqbJjSv45+/erTcz+H7sLgf/5NfCYeQxyaiMU7sfeu92Hz1gNij3AjUPuOYRGoVmvrsGsC6SaGVhuACGDFACsKWKvr0PkPEfydoGqXMT91AufPvYZczow3zEynMPq5/42/WsqgiGAIS1D6DErfoSBsN4GslwGWPFUi4nf/rPjdn9c+VfZzCxNzyKaXMX3obuyPWHqOvHalhNnpYaTmrqGzawDtyQA9PNoU1sQtEr9x1i66dknW4ef62b14TQatKFpBwOTC8feoFrE4fQKnjz+J0dHzKJf1n/UDavL3+S/jmwtLjm/6kC0NfvUj0qcKdAoYyd8qYRPANXSJney+/eyTBz/64O1HStvD15C2bSzcfyf2CrYrhUJ+CRPXTmIhNYaOjo1oT2q5Mk0Q3FTLy5i5+gpOHn8Ko1eHUSia8/3NsRlc+jf/57r88WKaLMpChyjqlNPQEEYBVCUmQRQ7Hkzrgxdp7Z26hPktA8CurdguMA6p5HNpTIydRi6XQnfPAGKxFnl2INFyVCsZzE68iVPHnsbYxDWUyma9IWZyHqNf+CN8a3EZa0YqcmmRFZVti/QhA1NFkWhC2AVQpI5pIuR3P7wYL3QO7TXllRMY2zGE6M7N2CbQl3QyS3MYG30LhfwCOjt7EYvTpWHCDCqFKUyNvoKTx5/D+PgoSoZc6l3P5BxGPv9l/HXK/bKvE0EWRj+EVKQvGdDZxCaEUQDXQ1LHj452RZA9plv4+XFcG9qI6u5tuF1wjNJZTs/h2uhJLC1cQXt7AolkAN8tTASfahHZxbO4/PZzOH3mNczMTqNcMfMZjpfHcfbffQXfXj3z5yYDMkWJty0eSVEtWa0oi6GTwLAKoG6pkzneMAidinZE697EqycxvqEHpX3bsdMkz8pmM5gYv4DUzGXE43EkOzbCsiK6h0W0ONVSGvNTx3H2xDMYvngWS5kMquYeVquvnsTPv/jH+GG+gPrTkrLETLbgqRBGVRLqV/si/RAIrwA6EfSzdCR0fHVF6t3E4dOY7Ewie+AO3CHYpjIKhRVMTw5jfPQ4qpUVJJM9aGvT/HYJo/5ChGfsAjKpsxi58FOcOf0LTExcRb5gzo0djahUUHr0GTz+R4/i9eqNp017ERUSRj3CKApJIcItgK12lk5mm7La8tqOaF2Rep448jamLSB9cA92WRaMO9VWsStIpSZxdeQtrCxNIBGPI5HspbOCJKOCVFFcmcTk1cM4c+IZXBm5gPTyMmzb/OPoSh5Lf/C3+OYTL+ES9Ekfb91mf9iwC6NqGW1pwj79iZ7tayQqstpS0aastry2I1pfpB5vHdZ8x7wPHMK2f/vr+GQyAeNf4tqeiGPL1t0Y2nwXOnp3AuZ5a/iw3FP0YaOUncDs9AVMjF3A4lJG94C4mZrH1d//Kr5zeQLLq0W88iAiHKKyJ1LPxDZUtifz9wwdRk83PuCHfJnans42/KrHk8+Sy5Sz73b0/pffxKcG+jCIgNDd1YOt2+/CwG370N5xm+7hEKZgAaV8CvMz5zExdg4Li/Mmf6fPieobZ/Hal76GZ/NFlMEvDjy5OsRPtJ4KOZPVjuy2nNoMJZZ7SsujS55MkTFZbYjUVV2HNZclzy3npnhPJ+L/43P42L4d2IuA0dXZiaEtezC4aRc6enbAstZ/U8RqWo9oFcooZMYwN3sZM5OXkFpMB/oImc1j+Rs/wvf/7kVchLhgsOaJSotfdWSKlYw2ZEue6N8xlNBsLk+eZIpYUIVOpJ6qfJl5TjlNY5EIrC/+Ezz0gUN4yNL06jivJJMd2Lx5D/o37UF33zZEIjHdQ6ojkH9W46jaBWTSY0jNXcbU5CUsZ4J3ebcRl8Zx7r99HU+MTWMF3qSBJUdUQlTnyxAtL3Vli56sdkItfwDNnmuoFjFZ7XhpQ7SuSD3eOjz5LLl+5DDHPngI2z/3D/Gx7g70IMBEIhEMDGzG4KYd2NC/A+2dQ6DvDdZjuacYQLVaQm7pGhZT1zA7O4L51FwgbuBgpVxB8Ucv4yd/8hiOgE0a3OI84sGa55f8idTxKlpe6soWPad2Qk0wZit/IKHTV4c1lyVPRo5TXCSG/j60/95v4EMHdmE/WoSOjk5suu0O9PfvQFfvNsQS9PYR87Cur5Xyi0gvXMXc3AhmZ0ZRKIi87tZ8rk3j0lcexZMnhzEPfqnwGleVJyJEvPm66smSPZG/T6ix3FNCRRCFzg9BU5kvM88tx0u8WYyr/LOfwIFPfxAfjMcQR4vR1bUBA4PbsaH/dnT3bUE83q17SCHGRiGXwnJ6HAupSczPXUMms6R7UErJ5bH8xEt4+utP4iTchUA0piNHda7fdWRJn9e+Q4/lnhIqdEuZn0IXFKnzKm5ucZmxZvk3le/fgb7f/iw+uu02bEcL09nVh4GB29G3cSu6e4eQSG5AQL8KaTxVu4T8yjTSixNYSI1hfm4C+RY9w1dPtQr72Hm88Qffwk/n08hDnuw5xXRIIGueiBypzpclbaJ16+sTAM3GDTBF6PyQOt72WfNZ8mTkeImLxHjKHcsiEVj/7BN4x6fej/cF4ZmBMmhri6KvdxAb+regp3cLurpvQ6y9T/ewAke1kkduZQbLSzNYTk9jYWESS8vpoD6exRNT87j6tSfw45eOYwJsssBbzhL3UleVBLLm+SV/InW8Sl+zusQqlntKKAmq0OmWOhPEzg+5a1bOXTa4AckvfAa/9M67cF9Q7xT2QnuyC719g+jtuQ2dXf3o7B5AIknvLV6jUs4jn00hu5LC0tIU0gvTSKdnUalUdA9NK6klTD/+Mzz3vedwHs4H/EZlXoRONCZTBFlyVOT5KX8idVj/DYhVQnfA4UCV0LWq1MkQN1F5E43JKBctu2n7kfsw9Fv/AB8a2ojNCDnRaBTdPRvR2zOIjq4+JDs2oj3Zh0R7H6JtCd3Dk04VVZQKGeRzC8iuLGAlM4eVpXksLc8jn8/qHp5RZHJIP/0qfvoXP8Bbtg17tZhVBHhydYqgW1xmjmoBVJ3P+3sS67DcU0KNKkHjraMz168cp7hIjLcOTzssZdw5kQisf/Ep3Puxh/FIZzvoltoGJBId6OregM6ufiTau9De3oVEezfiiW7EEp2ItbXrHuIt2LaNUimPYj6NQn4Z+dwictklZHNprGQWkc8uwa7a7g2FmEIJuReP4ed//jhez2RRWi32U/p4y/0QQbe4CglkzSP5CwCWe0roUSFeuqXOFLHzS+5UCJ6r0DHmoH69uxPxf/VreNf77seD8Rha75SXQqJtMSSTPYjFk4jH2hGLJ2s/sQRisQ60xdrRFksgYlmIRuOwIlFEom2IRGKwLMuxbduuwLZLsMsllMsFVCpFVMpFVCq1bbtSRLGQRamUQyGfRb6QRTGfRakcjpsxVFAsIXfkbbzxp4/h5ekF5MAueiw5psigU8xPEWTJUZGnOp9ogvOMR6zRSlJnstj5IXdeBI9X6BqVMdffOojkb/0aHj50AA9EI1j/PjaCaGmyeSy/cgKv/uWTeHN+8aY7ewF3CRDJkZWrSwTd6vqdIyJpJH8+Y7mnEKvokjpZwiYrx0tcJKayXLRM5fYt63fuRN+//BQeObAL74hG6NUbROuSzmD+hTfxi2/8GG9l8yiDT+zqt4Mqg051vIqgW1y2BMrOI/mTiOWeQqzDb6kLitjJljsZIidT8FRKnlPspvV929H7Tz+JBx+4E/e2RWHaS3kJQpjxWVx+7jAOf+dZnG1yc4fXbdayRjmqZbBZuaqYLMljaUNXHsGA5Z5C1OGX1AVZ7GTKHY/I8eTWl4nk8GyzxlzXtw6i459/EoceegfeGY/DvLseCIKBcgXFM5dx4v/9FK+9fhrTq8UsYuYU8yJ6LDk8MshTX0UdGRLnFvc7h/V3Jhiw3FOIBqgUNlni5kXQdMudCsFjETa/JI9J9NzWN/Yi/tmP4/5H7sUDfV3YCIIIAEtZpA6fxOFvPoWj06mmN3agybrX3KDIYLNy0TqibcqKy5ZAp78BwYjlnkI0QbaQycxxiquoq6NctMxt24vIqZI+x3gkAnz8EdzxsYfxzj3bsC9i0fcECbMoV1C8cBVnnj2MYz95FVcaXOZdv+4kdU55Krb9KpNZrirmR9yLBBKcWO4phAMmiZ0X8ZMd4yn3mltfJpIjc7vZulTpa1a2ayt6PvMR3H/oLtzfmUQ3CEIf1al5XH3tFI5+73mcnrtxNy/AJ3rN1v2WwyDKYLPyVhFBrFsSnFjuKQQDOsXOZLlrVeljjcleZy5ra0Pkww/i9l8+hHvu2on98Tb6riDhD3OLGD99CWd/8hpOHzuHWciVvmbrYZNBnlwVdWTU9do+iZ9HLPcUgpFWED+V5V5z68tEcrxss8Zkr/OW3ZLT0Y7op96Pfe+9Dwd3bsFeeqYgIZu5NCZODuPUj1/BqZPDSMFZyhqV+SmATjFR+WPJUVEms1xHjCXu9PcgPGC5pxAcmCp2IhInQ+RUC54uyfNL9ISlr1nstn60f/qDOPiuAzi4uR/b1sUIgouFJUyfuIgTP3oZp05cwBwaS97a0lQZ9CqHrSqDzcp1iiDq1gmP0OSvhiCLH0+519z6MlU5UJArY10kzhNzXN4+hM5PPIw779uPO2+/DbvbomgDQTShUkF5fA6XT13EuefewLkzl5BaDbkJnZcy2QLolOfHdivJYLNyr7LnFiMkQQKoDtXiJ7MOT7nXXJa/jVuOWx3e+s3qiuS5rYvEeWJCy54uxH7lYex590Hs370Fe9sT6AQRenIFLI9MYvjN0zjz5MsYXsygCHaRc4rxiJ9bXJYAOsVaUQZ5cr1Km4wYIRkSQPXIlD7VcqdC+ljbc6snc5s1JpIHD3HeMmXLg3uw4b33Y8/du7Br52bsjtFNJKGgWEb22hQuvX0Fwy8ew8UTw5hfDTkJXrOlChlkyeVtR4cMBkEQTZJEQgEkgP6gSu78FLkwSh9LHZ52ZJQ1W7Lmcuf0dCH2kXfjjgfuwp5dW3HHxh7cVpdLBJRqFfZcGuOXxjB85CyGn3kdo/kiyutTGixNlEGv6zrlkGTQ+e9AKIImcX9RKXcyBM9LfVU5PNsyYrLXZZSJ5DgteWM3lW3uR/LvHcLOe3bjjh1bcMdAL4bqcglDqdgozaZw7fIErpy+hJGfHcVog+fzoW5dVPB4coMqg7LlMAgyyJMrWofwAZq0/ccPuVMheKZIn6xclesyykRyWJaiOU3XhzYi+f5D2HnPHuzavgnbBzdgczSCGAjtFErITs1h9PI4Lh87j5GXjuJarojKariZpDnFZEuhV/Fzi8sWQKc8r3IoSxhNlsFm5Y32QUIxJID6CIL0sbbnVo+3Dm97zeqK5PGsi8SdylhiMpa8Ma719jii73kHhu7bh+27tmD75k3Y1teFwbpcQjLlCoqpNCYm5jB28RquvTWMsTfPYrbutWuoW1clf/XLVpRBmXIoS/5YcvwURJ5ywmdoQtaPHyJngvTJ3GaNieS5rYvEncpYYjKXvDGv6wBgDfQh8ci92HbXDmzdsglDgxswtKELm6L06BkhKhWUU0sYn5zD2KUJjJ0YxrXDpzFTLl8/uwc4S12jMtUSuLb0QwZliaEKUSQZJPEzAhJAM5AheKz1RdsTyZG5zRoTyWu07jXXqYwlpnIpUiay7hiLtyFy7z4MHNyDzTs3Y2ioH5sH+rCpM4kNEYveVgIApTLy6RXMzC9gejKFmauTmD57BdOnLyJVcJe9ZusmSGD90osMyhZD2aLotxwGQQaxbkloggTQLMIufTJivHV42hGJ88REc1nba5brVuZ1nWX7elkyjujdu7Fx304M7tiEwU0bMdjfh4HuDmxIxtHTamcN80UsZ7JYXFrBQnoZqekFpEYmMX3mMmbOjSCNWw+UPLLXbF1UDHmFUZYMsuaLyqDMdS/Cx5MrKn8sdVTLIGEAJIBmIkMERctEcni2ZeX6tS4S54nx5DgtRXPcyryus2zzlGHnFnTt2oa+bQPoG+rHhg096OvrQm9nEt2JODoSMSTjMXTE2pBoVN8nqvkiVgoFLK8UkFnJYSmTRSadwdJSFtmZFBZHJpE6dwUL6RWU1urUt+GwbYIEsuR4lUKVZToE0ClPhwz6LYiEQZAAmo0u6ZNRx2n8rLkieTLWReI8MZ4cnqWMmMx1lm2eMpbYdZIJRIcG0LGpDx2DG9DR14WOwQ3oBYB4DG2xttqdysl2JCMWrEgE0UQccac2F5eRrpRQyuSRK5ZRzhdQyuSQL5ZQXsohn1lBMbWM3NUJZAql6zdfAI0PfixlrSqB9Us/ZdBPMZQV82NbpQwSBkICGAxkC55XoVMphKwx2eusZaJCJ1v2eATPKYdl3Uni/JQ/1vlK1bzGeiBrltdqEugUIxlUJ4pBkkHCYEgAg0UYpE8kj2ddJM5bxhJTseSNicZ5YyzbouW8OTJgObDxSGCjchkSuH5blhCqlr/6pS4ZlCWGKgTQKWaKDBIBgAQwmJgqfTJiInmN1r3m8paxxFQueWOicd4Yy3azMqdy3hwVyBZBWRLoFGMVQpMksH6pUwZ568mWRr/lkDeHCBAkgMFGhwTKymVZly16JkmfF6ETFb1Wkz9T5i+3Ax9JoLqlbBmUIYZe10XzdMogEUBMmUAJ75gofSJ5stdF4k5lLDEvueuXXnPdynjivDGW7WZlTuVuMVl1RA5qTnVaUQIblckWRZJBOTHeuqz1iQBDAth6+C15JH1yZM+LBMoqY11322YVPR4hdIt5yWWB54DHK4KtLoEsOSSD/KLGmid7m2gRSABbF16pUyF2JH1yljJiPHGndZ4YT45TuVuMJ0cGLAdBXglsVO4mhjIlcP26yRJYv1QtgyaJoR8xp22ixSABDAeyJU+nAHrNdSrzGlOxFM0RjTut88QabTcrEynnzVGBFxGUJYH1217Eb/06a9xrjGRQjgCy5onkEi0KCWC4cBO0oEqfSFxWzI8lb0w07rTOE2u0zVPGEmOJ+4XbgdIpziJ4jcpMksBGZboksH7pRfi8lKkQQ9V5jf7NiBbGlAmU8B8/xE626AVF+kREToX8eRE+nfIXFPGrR1QEW10CnWJhlkE/1nljRIgwdSIl/EO29KlcZy3zQ/q8CCIk5IiUiazzxBpt85Q5lbvFZNZZj8iB0akOSaD7kifXTexE6qgQP7e4DgFcPzYihJC4RaiiAAAFKElEQVQAEusxRQBF4rxlLDGeHJGlaI5Imcg6T4xlu1mZU7lbzEsuLzwHS7dcUeFrVOaHBK5fl1EmS/6aLUkGnWWQIEgAiaaQ9LnneFmK5oiUeV2Xsd2szKncLSaSJwvWg6hTXrOYV+mr3w6KBLLkqJZCv2XQbzEkiOuQABIs+Cl6OqRPteyJSCBrjCcusi5ju1mZSDlvjh+wHFx5ZK9ZuRcJrN8OqwSuLXXIoMw4SR/hGVMmUCI4kPTJWcqI8cRF1mVs85SxxFjiunA74DrFWYSvUZmJEtgo7jUWZhkUySUIV0ydSIlgIFv0giB9LJKmSgLdymSuy9jmKXMqZ427wVrf60FUVARbXQIblZkigfXLIMhgo78dQTBDAkjIohWkT6XQBVn+RESPV/Kc5iKReUr23MZ7kJUpgY3K3cTQbwlcvy4qgU4xWXVMkkEZdQhCGBJAQgVhkj4RCeSNuZXJXOeJeclxK2eNi+Z6gefgK1MEeSWwfrvVJJAnV5YU6pJBEj5COiSAhB94FUGvMZ4cGUvRHJEymes8sUbbPGVO5W4xkTxVsB6YnfK8SGCjsjBIIEuOaTIoWkYQStA9eRLhQ4bY6TzDFwT5Y5U6E+UvKOJXD8vBmiRQrMwv+Wu29FsGCcIXTJtEifAhU/r8lj0RCWSNyYy7xXhlz4v8eT3rZ/qcpUIESQL1S+DaUoUMEoQWTJ9MifARVOmTKX+iZ/t0yJ9fZ/1E5yqvc5zoAdqLCLKWe5XA+m2W9fXbXiWwUdxrzDQpJOEjjIUEkDAdWdKnQuhUiB7JH1/caz4vvAdwt3yvEtioTIUEsuTJOiuoSgJZc1XIIEEYBwkgETR0nBWUlStSxhOvXxfNE9nmKXMqZ42L5sqE5+DulMsbC4MENirzQ/6aLUX6IwijIQEkgo5s2fMigbwxtzKeuNM6T0xkm6fMqdwtJpLnF6wHfhERDJoErl83QQJ5ckWkkCACiWmTKEHIwDQJFCnjiTut88REtnnKnMrdYjw5OmGRgiBKoFPMZAlkyaGze0QoMX0yJQhZkPx5E0PWHNa6rDGeHFltyDjQqxBBVjkMgwQ2KlMhfwTRspAAEmFGpgTyxkTjrOuyYl5y3MrdYixx2fWaISoEbvVUnQ3kzSEJJIiQQQJIEDdD8ue8zVMmUs4a95rvFV5pEBXBVpPA9etehFBGjCBCDQkgQbgjQ/T8kj+ZsudF/kTP+vHMSabMXzxSIXLGr1lMtCxsEkgQRANMmUAJIoiQ/Mm7FMwS583zG1bpkHk2UIUE1m+rEL/167IuDRMEwYGpEylBBJ1Wlz+Zl3xZ5qGgzVUsUiLr+3+NyltZAgmCkEDQJlWCCDoqhE+l/Kk86+eH+Hmt71U8VIigzO8FmiqBBEEohgSQIMyC5I8tLrseK6KSInrZ1ynmx+Xf+m2ZEkgQhEZIAAkiWARd/mSLn+45jFdoZH7/r1m5KRJIEITB6J48CYKQj0758+Osn4nzlqw7gd3ium4EcRsXQRABw8SJlCAI/5AlgyLlrHHePN0E+W5ggiBCQlAmVIIgzMDvu3958lhp1p5sGZIhgjIuCRMEQdwCCSBBEDpQfQew7LnNi1h5vROYIAiCIAiCIAiCIAiCIAiCIAiCIAiCIAiCIAiCIAiCIAiCIAiCIAiCIAiCIAiCIAiCIAiCIAiCIAiCIAiCIAiCIAiCIAiCIAiCIAiCIAiCIAiCIAiCIAiCIAiCIAiCIAiCIAiCIAiCIAiCIAiCIAiCIAiCEOP/AzoepTPCHnwoAAAAAElFTkSuQmCC;" vertex="1" parent="MOm3VzQXyqsTuMaY0aLf-2">
          <mxGeometry x="195" y="95" width="120" height="120" as="geometry" />
        </mxCell>
        <mxCell id="MOm3VzQXyqsTuMaY0aLf-10" style="edgeStyle=orthogonalEdgeStyle;rounded=0;orthogonalLoop=1;jettySize=auto;html=1;entryX=0.564;entryY=0.013;entryDx=0;entryDy=0;entryPerimeter=0;" edge="1" parent="MOm3VzQXyqsTuMaY0aLf-2" source="MOm3VzQXyqsTuMaY0aLf-26" target="MOm3VzQXyqsTuMaY0aLf-6">
          <mxGeometry relative="1" as="geometry" />
        </mxCell>
        <mxCell id="MOm3VzQXyqsTuMaY0aLf-23" style="edgeStyle=orthogonalEdgeStyle;rounded=0;orthogonalLoop=1;jettySize=auto;html=1;exitX=0.5;exitY=1;exitDx=0;exitDy=0;" edge="1" parent="MOm3VzQXyqsTuMaY0aLf-2" source="MOm3VzQXyqsTuMaY0aLf-24" target="MOm3VzQXyqsTuMaY0aLf-22">
          <mxGeometry relative="1" as="geometry" />
        </mxCell>
        <mxCell id="MOm3VzQXyqsTuMaY0aLf-13" value="local heap data storage -&amp;gt; txt -&amp;gt; csv format" style="whiteSpace=wrap;html=1;aspect=fixed;" vertex="1" parent="MOm3VzQXyqsTuMaY0aLf-2">
          <mxGeometry x="220" y="520" width="80" height="80" as="geometry" />
        </mxCell>
        <mxCell id="MOm3VzQXyqsTuMaY0aLf-20" style="edgeStyle=orthogonalEdgeStyle;rounded=0;orthogonalLoop=1;jettySize=auto;html=1;exitX=0.75;exitY=1;exitDx=0;exitDy=0;entryX=1;entryY=0.675;entryDx=0;entryDy=0;entryPerimeter=0;" edge="1" parent="MOm3VzQXyqsTuMaY0aLf-2" source="MOm3VzQXyqsTuMaY0aLf-8" target="MOm3VzQXyqsTuMaY0aLf-13">
          <mxGeometry relative="1" as="geometry" />
        </mxCell>
        <mxCell id="MOm3VzQXyqsTuMaY0aLf-21" value="Video metrics" style="edgeLabel;html=1;align=center;verticalAlign=middle;resizable=0;points=[];" vertex="1" connectable="0" parent="MOm3VzQXyqsTuMaY0aLf-20">
          <mxGeometry x="-0.4491" y="2" relative="1" as="geometry">
            <mxPoint as="offset" />
          </mxGeometry>
        </mxCell>
        <mxCell id="MOm3VzQXyqsTuMaY0aLf-22" value="Matplotlib&lt;br&gt;Visualization " style="shape=cube;whiteSpace=wrap;html=1;boundedLbl=1;backgroundOutline=1;darkOpacity=0.05;darkOpacity2=0.1;" vertex="1" parent="MOm3VzQXyqsTuMaY0aLf-2">
          <mxGeometry x="210" y="790" width="120" height="80" as="geometry" />
        </mxCell>
        <mxCell id="MOm3VzQXyqsTuMaY0aLf-27" value="" style="edgeStyle=orthogonalEdgeStyle;rounded=0;orthogonalLoop=1;jettySize=auto;html=1;entryX=0.564;entryY=0.013;entryDx=0;entryDy=0;entryPerimeter=0;" edge="1" parent="MOm3VzQXyqsTuMaY0aLf-2" source="MOm3VzQXyqsTuMaY0aLf-9" target="MOm3VzQXyqsTuMaY0aLf-26">
          <mxGeometry relative="1" as="geometry">
            <mxPoint x="260" y="140" as="sourcePoint" />
            <mxPoint x="139" y="181" as="targetPoint" />
          </mxGeometry>
        </mxCell>
        <mxCell id="MOm3VzQXyqsTuMaY0aLf-26" value="" style="shape=image;verticalLabelPosition=bottom;labelBackgroundColor=default;verticalAlign=top;aspect=fixed;imageAspect=0;image=https://upload.wikimedia.org/wikipedia/commons/b/b3/Terminalicon2.png;" vertex="1" parent="MOm3VzQXyqsTuMaY0aLf-2">
          <mxGeometry x="60" y="120" width="70" height="70" as="geometry" />
        </mxCell>
        <mxCell id="MOm3VzQXyqsTuMaY0aLf-28" value="" style="edgeStyle=orthogonalEdgeStyle;rounded=0;orthogonalLoop=1;jettySize=auto;html=1;exitX=0.5;exitY=1;exitDx=0;exitDy=0;" edge="1" parent="MOm3VzQXyqsTuMaY0aLf-2" source="MOm3VzQXyqsTuMaY0aLf-13" target="MOm3VzQXyqsTuMaY0aLf-24">
          <mxGeometry relative="1" as="geometry">
            <mxPoint x="310" y="470" as="sourcePoint" />
            <mxPoint x="315" y="700" as="targetPoint" />
          </mxGeometry>
        </mxCell>
        <mxCell id="MOm3VzQXyqsTuMaY0aLf-24" value="" style="shape=image;verticalLabelPosition=bottom;labelBackgroundColor=default;verticalAlign=top;aspect=fixed;imageAspect=0;image=data:image/png,iVBORw0KGgoAAAANSUhEUgAAAcsAAABuCAMAAAB/esicAAABgFBMVEX///8RVXwASnUATHYAT3gASHQAUXn/qW//3W8MU3sARXIATngAQnAASHPt7e38/Pz19/jn5+fw8PArZYhHcI/z9/ni/4bt8vXG09y6ytXl6++En7OasMD62GqyxNDT3eRTfJmnusje5er/rHBvkKf4omi4/7dHdpRfhZ9agZy3x9IeXIEAPW2Am69xkqk4aov/43CQqLrZ2dnEyczDwby6/7mssraMg30AN2q8wcSMfXWlbUbpmGGVZkaMbFnVi1fDgFOLZEuZdWCubT2amJefZ0GDb2O81Wibr1qHiYGreFaHjXjR7Xh3f16hpaaEjWmtxGSWl5GHllZgYWS+pEyAe2qQgVWNaFGMg2i2tLzZvFp9c1Oymk2SglB6eHatxV2ahT6jeFx6iUWJh4xwTzpWbqlbg+NPY5QuMC0PDxAhL084V50qQ3uikmVCQkK+pVE6fW5ZbGiXnZd0lnRbOiBVqpZypHFpXTZs7M+KyIhezLOf5554hXh8sXt6n3mCmYJi/31OAAAY7ElEQVR4nO1di5/btpEWKZJrklqRelnUw6Jeu5JWlmTtps5t4sROs3HiPPbS9NLUbrLX697l2nvk0uSSS+K6+dcPIAFiAAJcyfa62ZRff81afIAgBjOY+TAAC4UcOXLkyJEjR44cOXLkyJEjR44cOXLkyJEjR44cOXJcITSDg0G32wuGL+Zxw6DX7Q5aob/l9Y1LrdXPAo2JaerFoq6b5rx9+Y87cHVT1/HjnM4m1wd2dH0RVW982XW78uiaGoXevfzHaTZ9mu1ymtYcjOurVX3a5TvUykquL72Arna1sXYTWRYHl/841nPsOZRlzzQNy7Yto1jiajFPZK+Zzcuv3tXGgslSP7j0p/klJsuax44P2XHNBPrXmIPjl167q46pwRoruPSntZ3kaVYdHB+zHqXpQDGbTC1t/dJrd9VRB0bs8j3ZkNlYa8YOe8CUai5witouG1/nl167qw7QisXLdy4CJksD+KUNpq7oBJDlEIyvq0uv3VVHkTWipXAuGsOg21mOp+PFuhc+m7wPgCwX7DBQV6SXa+kJY5Yu7iqjGQZBKwjC5+jRAadjLgnHG8G6NkeRQu8gOGj1BotJTZsOsuRJqyi/ZlCUiiyAsoTjZUtnslw+3Qv+NNHsmwg6/s/Uu/jyjQCsm11LnQ2men8wJAxNldSi1dFXXUVvas5oFZ2ZjNhRRECcXsJhe8BkCWV/9dHZTZq99LxcTuBYigOSNyhOBkBVy+yf4VKfSh2lNRNKqSc5vwQRUIsdbgBZcl2qy/S4+AKYjBeHMQgfwudUJnQsJ9yZriuIqwx/eGu9L5Hm4oIIZ5rQONouPN9nMub6QAfI/gUwGS8OfdYQ+vOSZZDoumZM4fH5JB7xmrdfPosPlfk7/fU/pK0ekJW0u4FXcOD55qqkG4ZlGLrDqR/oG1CPrz5WlxA+AOfCBc7F0oi0xjt+5dU7o9fiY2Xx3mbfFlVzArqbzAjXgSz5VxgOFuPpdHHAOwLTSzBFPwmwUNA2npcnK3Us27XYt7r9+t2d0c7o3mF0NCVL1BNuCoavBqhzWXdj5zVnk0msF8tkvEBoDMbzKlPmWIbxkHX8+p3RaAdh77RaQThE/y+Xeb1p1/iZKAvUUdLdGoCZKG1SvRfLZLw4NADPpT2vQuGARJyOgyLWgObZ3UiQO3t7ey9Hx7Feel65UuGCjT4XwuuAcpOETU0g6426I6Bp7Z/TNEnbYA2VDgWfEtA3jp2LXjSQHb2xF+vk3s7O6JfRicTGVitVUMIUhDINNvpK6dM2OL/RK4BpFRmT8bzRaDaUgTs6t2kxPro2++IhawghfLi4ZOXJmehctByslcdvJpJEsnw1UgkwXnpAmv6SVaZ9AX06VEZAcjThFBk8kdXoG8Hzm+12E5YRdvvzuTaf1zvpYGq4js7VJp1W9mO9sNfpr9C16OJVfzFQjfGQm5xKr4gqyL1kezBe4YLn/bXcDZwIjmWIXAw0Jnr3E0kiWd49xpdyvo9fIY+peoUZHjM9oYpWX/K0QP0KceMKXNFQMkXmB4tJ9EqTTvDU8lxrJcdxSk6Ntkpv5RQtbPdsyzA1npborUrROTxVbtpqyqI5mLmOjqfUcTn4ar007wjiHNQwgB9gz2sUjM3zFi6uoGNOqJcQzFDUZse1cJ25hIjxgGNZQg3ZiAglpHTtN0ZEklioJ/haIkvvvBL9LUeqWcWPX6H3CzRcG2kVGZt3ACKgBaxHb6LHjTvvQHGm+0Y4dnECQtToblbDZqJXIhU14lKDmgmdEVufs57fSp2TK1sw0XVDE2G75hQ6bQ0Lidq2uRITOEkIPaAGSY8DxWHf4cq2d1epWvggztGRWOpx4yDNPHprlMhydD86GN/y8O13HkTl+OXowgI2hejVF7qyikknUlDrheCmRW61uZQuUY+bU5N/JdjoWyChBmPrsHRgxeOCSbP609Q5S5cwWq2VaWlyGDpQopapuAqDJVytkwpGXb5jpnpJuhYNNteLjdiaDmJV3799LxHm6N0msoEVPxLce9evX38nUlSvXCVGIXA9fj6ZA2NSVfQqlDGUpTBFNnBdTYBtymjfi5BEYngSdTgviqUixIx3aKVVDQlaDI+8WUn18lFZLArvyp6VbpMkcwcfatd0Sem2IwizyQYkdKpdok4SHg5P7lBh7t07LleR94rikfLwHSTL6+9/gA1tORlClwvsNSmqyFRwraBXwRtyyYBgmgS91FTap52nEOaSSsjoFFqyhsJjBDL2g5RSRrBEv66vyy5jZTHOqiPpG5J3T/gupNOBJdd4kY1hzgWe6p3Q9vXKeCA82yMB5s7eaYHa2JP3sSyvv32KDaxHhdlwh5wfxYF1t6WCXoVRLkwgA7I3uhN5l7afgtxLvPfioKfqgahh16pzQv+BmWdSWIkTPs6UZVJs0pR60JP3JwSDDwXYgIRapJWEhFjpqtCZfTmR5T8ipUSyfBC7PT6NTXorYUYZgM1UzhTUOqTkoeUAU2SaoRqPrO2D7YTZtidFpXGcd1SiFIPjgaiWqTITr2aqegsM1isTJ9Kayc1GXCqXOJlQ61gt57QZY0e16jU/2YlVc/QGleXhh5FafuARtyfh9PDNdXlFmXjA7ABHr/YV0yvTrF7MbtnamwUeX0a5GQ/nbQEwHygO2dVdt6gXubZIkpsy9ZIZTXYsS/Z8DJ/0KDRaBvRMlYQF5cLRq/GQObo3JLL8VSTKj44SIVbITb2JykkDrgKcHYDGHshYV8g4C1uz0ykXCtWnqBsKwdqGXhTOFbnpPjJE2Jbu1BeDMBy2h2G3DhsjSQYeOBYGLMuiKPZpgZ7kvQ3d3BWryHUpKktsNFZEfZJBsFDxjokze+c24WM/wqL88LhwSPUxuVoLuWkQUEVm1qG9gPQquE+HxyWK7uq7u2IcZ26ZpO2JdgvFNuPBYCH1FzV9vhx0l7yzy7NW0Yy57eqTHqx8D9aSJt174zoGfK86xTS5uyl2K1vXxgdB0JvyNeRyoKh1QO5J2ybHEnqu6lULJzHDPjqPjz98O/Z7yok+FigBNFhyxoZVccZeEK5AAJyAB7LTdcDlQCaD1FNboFc6WPKD57Ypek3Bi7LMdVybQVqYhtuNauR1uEGRMwU9dMo1F2L0DodRIctCnZkTYShW0FmTCCPkYnjNBTcRx9IuDgtrEthVfx1PV0Z+TZk4s6Nf4jmvsoeDy+tnkYGlwqSK2TQhTyOlzptAlvA8zE4vguNwBUL8Sl3ySu0Vp5rupgsASVPxvopRS+x9TxwlipOEy+aEyS2IaDim25Fw3mA05td3wPT9vqSCIV8NF5A8bW6Id0D/Ic455gkoNXV+458+PsL/iIRVJc7sq1VsYw/fifyeiCJIXFgq1EkABkRuhUHShgrqXZWd3nR5i1JjNfdqUDO3XD0RcrIs9oEpEKy6DqdnYWVMLrYbtqSzFwtVttJFab/hLngUX8FCD56DXYTM26Novk2mRL3f3Lp1DUuTqFu1/QkKSzC9jg6conDkoyFhe6gMqVCxkU1CYeuCKnLdUSXjJtc93YmCqt16tSGfjsvV9IATs8mRxpCz2SjLAdBZ/Bo6mGUlW1bK1UIXmpJbrwF8MDIgoX49IMPo0aNrCLce/faUXOIfY2d2D4+ROLj88CEl7hKvhwh1OAeerCWromqaRLHKBMoY3SFoOoxXpA2iBmwqt8+d4oZSnU+vht1nI1mC5/CyhHMMsiXFoBNQ+p8Bdin44vGAZKPxZkqi2V/duBbhxqPf3Y4jyIiZHd3HIcqH198+8ZOQkiomPYBc0MQq8tMgBD2QhQ7Pq7LTQfdNG22oXFvN53JOiVXn583AZINmCdNyMCvC3CRjBYhM55ginptMY83EZa/EiT042oOuT9JOcDu5xNv83S0iS6Sbv0HSRFroI2d29K5fxsHlA/RbNK40HsXdgXqe0izzruIVVNnpBzBNQUwRgTHYlnkWWeuH6+qsUB8uBt1ElkC9+BEdyEqX0cmSzB2GJqsF7OEk7QQZxIYWC6TyaSzLGzciS/vZKRacf3ZndO+wWvjD9Q9wBCIaV/p33WXRvXQEU2UubzJ9ku4bgP7dcj1fVlNN1LLcepE2eC+Osrww7XeZytyBAMwKcC9IHINsdkgOxsMlVstr14g0kYtWvT/aO/Ufvv8Rya4kai/ItDdmDKo0fF8q1mBvK+PUC2v2VslAMMlJ9IDVGbzcrF7GIu12GAZB0Gq1AjCk82VlVQAjOy0YsGFgcTkZzfHECjG8pzc4WV67cevGZ+d+ofLG3iuV9/6Z+EOicSWyxP2BmsutViAs5KtMLliB0HnqJD0VxY8BOn1JGKka7HlckJ6g3VrPtJJjOuauqetcmkGRqyDkn2VOlJi5w2MqlSVxLlDD94jPcS7KEunmjd+ftI/e/ZfDP5yj4fOl24VEeFSmRD+HNTbEXbQCQUWhc30gu/ty07pb6WWG7jVgooVwWzvTqLfXK9d0lQQyV0FYAVkvrGUac9AswMYSxxKHJMQ1fnCNk2U0bEbSPPnXs7PC7fN/+/zfGedDB05ic9tz5pJKuxvIQufaEHbDTaZPYnRhELaVLGFTCYwRcCxS8hpC71I8N3NcW8bm0rK450Dll1UQFCQZPYAsge9DmgM11LrjVRH8BzdkQKL99I9/OvuP//z888//q+z7hz6+FqcaRKiUffwTB5g0UpD5Bp6qDSG1vsn0Cak81MttMvI82MiiLIHrLMpLzdb4Syd7do4vq3HBwOspeGsCYMYA5UKccyTL7trzEQoPRBkipXz06NP//viPX/zp7PAlhCPf8w49H//Pr3j4Lq9SRX88D+slDQllVfTBy1mw8aETA/sAsHeS1SkwCNvKj/VhUwmdIIsphWwNxyLIM4Yg+LIg/yxbgQDTgiXUOzBjgCsgvjG2sSR2Bzb21q1b1x79z+9/+9XtYeXki5PjP39xIlCwHh0vUzZWuoGLD8NF2Iaq7HQ4g5Y2NcD32S6+zGoqqHsimdRThMFhxtQ/LYujHdoZxhoDpgVLWBBgxsA+HeNElpzvg6QYKeN7J8eYZa+efvnnlwpffV3931fIACn4PpTEqyWZc1JFaSpmelTr7BtwFi9d3FhqajYAzJ4Xb2wpqCkMBdXRtDhRWkXdMXW36LpKkjGrAhhBJvUOuQJAdRDnAgUCNCa5jezqo08/+/jB7aMohbJcqJx8881ptVD++tvDozdfi2ZQMmIS0nel3U2V1S7LTse4YHMfaGpkjKESGdnzmRskKLII+3CoLDr97kE4xGgHKtY1S/kxYIdKn4e0MAjtiHOBehnlCg7/DynjoZ9MSB+ef/Pdl4dIrP633x8WTu++yjLyUrzPYJy8r3QmB4w3HPWulHGmKfJg9LbV+vcDBf2LocruxOhI2ZoAZHhZ1hq4KuC9eKoDykpGrfcyz0OfD0Q0xLlAb+QZZEAiQoxV7/DBN9/9cB7NVx59//hhofDy3t0zTyXLTjfxsaQbuMDxBioS0BNLNX3ST5XGzVpsNX85yJilgLon0nvy/SJA4GTVOA8NpD8pqXUpb51NvcPUVYsdJgmFuKWoowjlc/LNd999+TBeM3Ky//gr9Of+3p37JO9Ayq2TKFheRVV2umKMUmzSRQDdWH2r8DKLGgQ0467YQWC4mwgNDAQav4sq7Ls86wqVX2ZROhkdCnpusFk8chh7lWNyU8K1Yl384YezajU+8pf9/b+gP5XXRntvHceXJHNe5K/TSLI6pDM521LoKr8xBvDmpEkManQyqPXUGkYAEO6yEOlAZUg59RKmSS7YHQUwzeK8G0+RgLuTYMoZJo4sVbaI0zlHZjWWZfWv+/tf4+NHb+6N7p0nV2AANzYkJUoHMNX0hGoKCsg+LS1oYrdzfTKpQWDAiiI9oQEk4xTUIeEG8F58v1hmTWkV+Gl2MfkXEvww6k7aA5XYpqZXmGFGf/CykcPv9/efVLGoT+/s7dw58+U5IrTTSGWpakPVFraQPC+K4oKjxpbpPlnUoCqDF0O6jzFQZHHlNhAZz7oCWUn1klvM4fCTXmBo4Xp44lhiTabLSll2bPQLS9SrVE8e7+9/fxytbj/DyxLeOPR8eF0hzq+lzSS1sar9iVQrEBYwJdnhX5pbiFQsbAXAbO+KugdbURCNJ6UYViBuEjikuop1BQ0hzb9YcQErtzhvk50D/UKXlpokS1bJUlmMr/b3Hz8+iY/fH+3tjO6dgMsw2jrer4CuUZWFTRtkp3NTUGPYsDansk3IY0tTZjIAaWFxitJQh7TyfYzhsM1z0HVoKbkzcAJSQoIIacF2kQkzhLyEbYLexpwLs1VoUtotyeep+okoC1//Yn9//5y8FPJ/dlBwEv+iosd9gRUom99TbfCimoISViCAxVUNLj12y51/uCllQZVA6laKF5SHSHB3KmgN2zWObedKguMhXc3gBUlPENOCNadLqtnllmhzfZg5F9jI9mnHZynpSQp75QkS5f6P5NfRvdGdndHefdyGVC0L1hC2PqtiIh2QnW4XYda6sM4+AW9qUDdckH4Y2LCd0q5eNiAHJk4BQHoiI1kMmB04MQyM7IDLrBeojgXHFPUPwqC3nJcSeqWZmgTV550gDNb8Ggl+SW+HG5wD2hGrySajVSqoh4+xLP9KW/r0Lt7NYIQZvWRtUJ/bRkTTJ70wOFjWSgk5DGcHoNoqZ4BSC61dbYwK7da53qmVtlx/2c6geUEWdIq6klO1XIYj9TmCPp94LlAd/OJoSzdNvK1EYgfauibCdk3T5DO/NZ2L04TNfVb8mj1sa+l2IedYlPtPaP6zf7YXCfPuSWKF8dKgJacupIrJsNNWjEVcNwTHPVeUZbzYiV8Np7nbfoMG5CSm7CjUPZG66knZmBA6Yba+WnTX07m4vYDgPkgXqrKRcyg7nb6ed7VmfJAQJKVFC9hJTBLJ78dIlo9jZr3iR8tssTDv3CdWfjDBSwakD5W1oSI7nWtb+P2LjHdS7SyuRJgxRXmQQU/I2RphmwbbLbpWqroCq5o2ohrs38Gu5HQKN3lzBHNB8djXp90tXuNO/13xqt9i1+cXj/HKvXgQHb42wsLcQ8EJ/tnA9zdkTc662ybTJHC2Dm5TrBZmaeuPqmRRg4MMdg3SReChA6UW2SnvgUK2Rpj5xsAAaKo1oSkOATgXUTDbLNE+7h3C66pHP/71yZPvn3z7oExX6GH/J95g7S2srOOo4y0lislUsKVow4tXJsxDibmNsbtlPFLInoXIYtfAiMRRtRNFeoi7WrNtEfiiQskGB6xNQIcyFiu5sXOEuNRP7Ro5oHpR9oUdRqvxmj1w5ORuvJfBfR/vHBydGUoW+DMXYoPsdH76hJoaZH2CtDsQQd/Sh8XIotazkpBVVG1jLhWmOWNPSm1cs0y/j2RzH9yhvLok/8QuiQMAzDkjwWU/vgYZWK8iXM3W2BIg/wfZ2NeRKJs3iXe8SFeRmZetN/ehhWHVDqS7aZSe5tsIWSsQNqRq+UzMYS3d3IbRBVY5TTKmd5FxZPvGYLp2aoqvbmipZHbJvL3n4qfGOlkRMsAETS1X8crMT/A4W0u6XWYVt12BQMuKRtFwnjI21tN9TK7jEKHYxk2xjWm72eicSMeuivGwbduumAW9dPjKGc4M3021zyql2AxvXOKGQsvpJ+fEDtU1uUsNZ5p299ol6nFZOjWuQ9T21JRWedVM7W3Yfm3n9TZS4QmwjMsS58XZJvNmVG3YLbHj0JHpOqTp4gWtzSmft2g4ss37N0CjUzccp1Qy57P05OBy5aJTjl6bplRpOK0VSwjF2jgV0Q47tlPEuxriDQ0dmyx3DycavsGqy9jpYIbCKwNv6GC4ugMvSaULt6c6ju4QjKKpL6XxdGs211HFHaPeSSQdQl+3AuUH/u3HzuzRr5Hq+jNuzAqnOqjiClSxsai7pA0539Pv1C1Z2zanmo6bbk67YdAvRbtA4p0aTWf2DJ/18CPIc2ovPic95YWD6aQ2r03G3dDb5AbUIK3udIIwXR9wigbThUl3bfamq/l8Xpt1A+Vyfi/9sADyKB7YxZnKEgUp8IZ+XyjTb3XHsioW1O2kOO6Jh9vx7qx4H9ef0y7PAqDphYb+KXZYDW5yIyvyYGOji1XRS37R8lf5p3+fN2A08KybWQ9NwePFm6yTvfMFDQ+t7eO7HNnwAUci27R+OzTqdYkJk3zTYuD8rD4A89PARRudb4uu+OGRgkSWw9XqZzxq/c0Auc7tktIUaE/mop8oyLK5kOYd5XhWwCVIz+mbny13xUuT/zbb4ubyBXxk4u8RgK/ccq+bDLRqWhf4xEyWXjC7KdszLMfzQC8jrf4ZEC6s1Zp+OYLmaA2mWr2XS/LScHnf/Aw6q5taf9EdHPR63fV4VTLGmd8YzvGsyFyB8MwYtrqdxXK56Kx7Ya6Qlw3VpvQ5rh5Uu6rkuHq4aPOfHFcHcMOYnIu52lgV7egDWppdtJ+Zjs3xN8VwObdcwzWseWoH9xxXD402Qh4x5MiRI0eOHDly5MiRI0eOHDly5Pi7wP8DqjA6Se6vdj8AAAAASUVORK5CYII=;" vertex="1" parent="MOm3VzQXyqsTuMaY0aLf-2">
          <mxGeometry x="165.68" y="620" width="208.64" height="50" as="geometry" />
        </mxCell>
        <mxCell id="MOm3VzQXyqsTuMaY0aLf-29" value="" style="shape=image;verticalLabelPosition=bottom;labelBackgroundColor=default;verticalAlign=top;aspect=fixed;imageAspect=0;image=data:image/png,iVBORw0KGgoAAAANSUhEUgAAARMAAAC3CAMAAAAGjUrGAAABWVBMVEX///8AAAAAeAg4ODjIyMiHh4caXDQDcAsAIADk5OTW1tbt7e1FRUUAdgAvLy8AegAAbwAAbAAAcwAVFRW9vb1lZWWZmZmrq6sbWTYiiik6l0AiIiIAaQAASAkgiSeDg4MOgBXB38OfzKKEvoiVx5gzkzlaqF9MTEz1+PXh7+JFnUuv1bG32bnN5c9tsnIAUiN7uX/S4NKgoKBycnIaRyLk7eXC1sKyzLM0hjYAVSkASxZfq2RMoFKOw5EAgQCCvYUWYi8oYz9ypHORtpKFsIZkkmxWlVcBbByFt4i1xLtpinWNpZcjXTwLcRp5loRHe1eHrJBdgmqZr6Ecf0AUd0k8h0gPVEgNWHcAUoMTcVNJdVqjx6Z8oqZ9mpTa4OsuW0lmkp10mH8ALgAAPQlMiFoSZyipurA6bE0rbEA9iT+MuI5cmF4AXgUOYm4AUns1bIwLalYKZWIAXHVFNuc1AAAIbUlEQVR4nO2b6UMaRxTAl2tTQFhALlG5lUVUBETEM1GjjWkO08uEnkk1STW9/v8PfXPtBcZKFteU9/uSMMwOOz/fzLyZBUlCEARBEARBEARBEARBEARBEARBEARBEARBEARBEARBEARBEARBEARBEARBEARBEARBEOSzRG031jr7B3sPnb4Rh6Eeegd7h+uhaDQaicRisaPZttN35QyFxeKXy1tZJRaJUBGhUMhNUY7Ss4+cvrtbQlXb1cZSofb7sQqvSguZzNzUVDafd5sBJRuPnb7XUUI8VKtLQKFQWFys1YrFstydfSwV5+e3FgZJ+d8rKZaLxdpiobDEoFYeyLL8VW9zkzqZszpRnqTrT52+7ZHSK9ZACdHBogWkPOuCk7XlZXBCA8XshCg5dvquR0uNR0mVQgbQQ1CysbayQqX0OQnd+98rYU6IkjZApDyvg5JH27uDnRAlJ07f86jRnah0tu1syHL9RXG7JJysf/31N7qTe3L3ldO3PHJqbDohSiA3q65BlNSfLpa5k2+/+/709PSlojkZByVS7+Dg+fMf1qpVlcYJzK7d40KROzlMy7M//vR8J68reev0Dd8GwUdPf/5FzCdvQcmrpSJ3AkpgPl3b0eaTMVFCUMW6cwJLzlcNkrXRORYEnUiNHW2OlbsPoHYn6PT93gY0PwElv8Jk0m1AJgthAk5kEhbVHW3duS8/gJS/c/na6fu9DXjSRlfhtcUaHzoyCYt2VqzFyn1ZJkpm7n1hudw77bEwLUmTfWV+R/o2LLVFkrb1NkhiQjY8ZTJ03sF0q6pzYr8DSrowaNZm3P1OXH1IUn9ZwJG+DQukKGBltQ6JSaHGwmQXlNSD0oLY7oCSOlMyJk7KRZKlrL5587omlPwGMeOX5jM8jVXOqJLGjHtcnGwXYW9cW33zep8Y4UpmA9KyOD9RztJgiCkZEyelMpGy+vqgyJSUfuvKs4+klQwPE6EkGhofJ7vb5XK5+OYhCClvQ5RcdOWNc+nLDD89ASUQNELJFU7CQb8B7iRgLvucWCltb2+Xn4EPMFLa3QMlj6WiUJI/okraXMlVTiyF1MlnnN0tr+yWSiXQAUJWSGJSfyr1MuI0lp1HtyMh9zg52Vwh7O7Sf4iSY6mQWeBhYlUyJk7mlwEmhG5yXklLc0LJE6YkpikZEydbm5vLgndkk9MwKjmHTaJBySc4iSdblTCsP0kPuSBHZ11vLkxqJuK8TiCZS3hcKSk1Qeq0vKYGAj5ypavSNDXs99G6uYDkmay0kilb/hIL85uCd3STM0fmElCSfZLeeAFKQgYlN3Gimstoh1xJbXVuSf5p7cUkW5hy7B2tOKwv4f4JfWH3aaXBit5exb5FP7M1z4GMvquqmYxZiduo5Kr8JMyZbOpORNl0hZYZ+sSomF5RKT5rHYgZRtxUKv4G/r769jiZ2+J8QzY5KjMCSrL02ZZFybU5W1J3ojEx2ImFwU5c8QFKhJTggGZscTK1wPg2TTY5sO/ju2GyJktq3qxkhE6Sg53Qaak/HnxXNWmLk2yG8j5NNjlbUyxIuBJp3aLEBidxNRifFG8l/GpATB8GJwnomRpn0w0ZeXyYNWGK8rc0VV69cjBlq5MdEhlz62myydnMTtFhQ5SQZ1vrMbfdToLGCgn6gs2sZEbxGRsRKgIiTHh32TQNgZJgjlmpOmmnE9BAlMAmZznPjfQrOVOGdxI2OOE9aGqhoVf3CicerXHee2ahZSqd5v/mRGnARicKWJhKk03O3g4TAkq65HHfe13Jxq8f3++oQY6q33VAlAUNTgKmDvA2JsxOmlrjPqaIxUsrzvCyVZ1Hj56P2OgklM9n6Sbnd4X6yLvd9+mzLYOS2fNq5FNzNpMTtmJM8rcSZicp7RoWhJI2/Rjxe41NSPpIs4EYhIVcP5F6IW5EYUoOjUqkhiNOWCgMOI4hTuj6PKF/gI1OouQA+pXUifDnOKCEPNsyKoE9z91zEoiPLk6iZ92Nt/T82ajkwqzEIScsVZPCA52wgaXvIGx0cnl83uCHrVSJTB73WZVIndjtOUmYr0lILCWJm9vjQaQLdNnnhKAdoyln9NnWXsSiRAuj23DiEieVKd5rFi4TkgVWWTJVts2JdhpwlZKOUOK+57JcOwonvFZS6zT7D09Q1Bz/OBY+YfY5KdOln4x2GqCcpR98XIn78txy8UicuCaaKZHyk2yF25lMxuNNUplldTzJcSWa8aR27GCTkyldSfftyXH/XKIriXasF4/GiQ4bMR5LKZNS6a9ukxM9Nzs6Orq8nNHPXpmSXlRTEutTMmon06yGak3b6B5CHZWTQ9M+T9G/qRWbpWd/+7oS5cPp6ekf3//55y+35aSiXW6OCX7SFjSqmrbNyUXf1leLkoBFSejo5cu//vr7w4d/vrM4mf4PTjz9TsR8bc1PxAGlx7j8evXxk9A7rp1lJlTb8pODyMeVHEQNZSGFs6o34PcBSUurOSjLWc5jk6Riji+zQVLDJ85VU+ItLWfzNpPNuPW4ORhvwkelLL0OpJK+JKnrGfSXGIL96DVKBiozOrEVax57I0yhNzy9GcNvUIwBEWFK9gZH0Z100rRMQEOi9sy/VRJ+lIj8MSV3yElYm3H4WZx1AzA84jdth+sx4ifKErOrlNwdJxMkj/MGpWBArFijuS/ww2bHvRkSPqafeN0xJwnr0n0bX3Ph8XPxPhsx+gmN6hc8N3PSn7I1r7/IVtrtRqe3v3fx3h25HNWf46Zjp2VWMuSCZQvq9VWGI3fTrgUMw6fymX0Z6j+SagEJ7/UVDXiTrUqllbPnCwUIgiAIgiAIgiAIgiAIgiAIgiAIgiAIgiAIgiAIgiAIgiAIgiAIgiAIgiAIgiAIgiAIgtjFvxFWPVUWBqPhAAAAAElFTkSuQmCC;" vertex="1" parent="MOm3VzQXyqsTuMaY0aLf-2">
          <mxGeometry x="220" y="250" width="120.22" height="80" as="geometry" />
        </mxCell>
        <mxCell id="MOm3VzQXyqsTuMaY0aLf-30" value="" style="edgeStyle=orthogonalEdgeStyle;rounded=0;orthogonalLoop=1;jettySize=auto;html=1;" edge="1" parent="MOm3VzQXyqsTuMaY0aLf-2" source="MOm3VzQXyqsTuMaY0aLf-9" target="MOm3VzQXyqsTuMaY0aLf-29">
          <mxGeometry relative="1" as="geometry">
            <mxPoint x="300" y="180" as="sourcePoint" />
            <mxPoint x="315" y="270" as="targetPoint" />
          </mxGeometry>
        </mxCell>
        <mxCell id="MOm3VzQXyqsTuMaY0aLf-32" value="" style="edgeStyle=orthogonalEdgeStyle;rounded=0;orthogonalLoop=1;jettySize=auto;html=1;entryX=0.25;entryY=0;entryDx=0;entryDy=0;" edge="1" parent="MOm3VzQXyqsTuMaY0aLf-2" source="MOm3VzQXyqsTuMaY0aLf-9" target="MOm3VzQXyqsTuMaY0aLf-31">
          <mxGeometry relative="1" as="geometry">
            <mxPoint x="350" y="180" as="sourcePoint" />
            <mxPoint x="518" y="270" as="targetPoint" />
          </mxGeometry>
        </mxCell>
        <mxCell id="MOm3VzQXyqsTuMaY0aLf-31" value="" style="shape=image;verticalLabelPosition=bottom;labelBackgroundColor=default;verticalAlign=top;aspect=fixed;imageAspect=0;image=https://cdn.icon-icons.com/icons2/2699/PNG/512/opencv_logo_icon_170888.png;" vertex="1" parent="MOm3VzQXyqsTuMaY0aLf-2">
          <mxGeometry x="465" y="150" width="220" height="110" as="geometry" />
        </mxCell>
        <mxCell id="MOm3VzQXyqsTuMaY0aLf-34" style="edgeStyle=orthogonalEdgeStyle;rounded=0;orthogonalLoop=1;jettySize=auto;html=1;entryX=0.5;entryY=0;entryDx=0;entryDy=0;" edge="1" parent="MOm3VzQXyqsTuMaY0aLf-2" source="MOm3VzQXyqsTuMaY0aLf-33" target="MOm3VzQXyqsTuMaY0aLf-9">
          <mxGeometry relative="1" as="geometry" />
        </mxCell>
        <mxCell id="MOm3VzQXyqsTuMaY0aLf-35" value="" style="edgeStyle=orthogonalEdgeStyle;rounded=0;orthogonalLoop=1;jettySize=auto;html=1;" edge="1" parent="MOm3VzQXyqsTuMaY0aLf-2" source="MOm3VzQXyqsTuMaY0aLf-33" target="MOm3VzQXyqsTuMaY0aLf-9">
          <mxGeometry relative="1" as="geometry" />
        </mxCell>
        <mxCell id="MOm3VzQXyqsTuMaY0aLf-33" value="Multiprocessing activated" style="shape=process;whiteSpace=wrap;html=1;backgroundOutline=1;" vertex="1" parent="MOm3VzQXyqsTuMaY0aLf-2">
          <mxGeometry x="230" width="120" height="60" as="geometry" />
        </mxCell>
        <mxCell id="MOm3VzQXyqsTuMaY0aLf-36" value="MacOS silicon chip[ARM]" style="ellipse;shape=cloud;whiteSpace=wrap;html=1;" vertex="1" parent="MOm3VzQXyqsTuMaY0aLf-2">
          <mxGeometry x="550" y="15" width="120" height="80" as="geometry" />
        </mxCell>
      </root>
    </mxGraphModel>
  </diagram>
</mxfile>
